<svg xmlns="http://www.w3.org/2000/svg" width="1920" height="605" viewBox="0 0 1920 605">
    <defs>
        <clipPath id="prefix__clip-path">
            <path id="prefix__Rectangle_155" d="M0 0H1920V605H0z" data-name="Rectangle 155" transform="translate(0 3007)" style="fill:#fff"/>
        </clipPath>
        <style>
            .prefix__cls-4,.prefix__cls-5{fill:none;stroke:#494a49}.prefix__cls-5{fill:#3b3c3b}
        </style>
    </defs>
    <g id="prefix__Group_151" data-name="Group 151" transform="translate(0 -3058)">
        <g id="prefix__Group_6" data-name="Group 6" transform="translate(0 51)">
            <g id="prefix__Group_162" data-name="Group 162" transform="translate(259.705 3077.997)" style="opacity:.1">
                <g id="prefix__Group_9" data-name="Group 9" transform="translate(229.155 260.876)">
                    <path id="prefix__Rectangle_14" d="M0 0H109.675V224.651H0z" class="prefix__cls-4" data-name="Rectangle 14" transform="translate(31.276 20.791)"/>
                    <path id="prefix__Path_3" d="M282.943 159.755H161.6l5.832 12.51h109.679z" class="prefix__cls-4" data-name="Path 3" transform="translate(-136.16 -151.475)"/>
                    <path id="prefix__Rectangle_15" d="M0 0H121.34V8.28H0z" class="prefix__cls-4" data-name="Rectangle 15" transform="translate(25.444)"/>
                    <path id="prefix__Rectangle_16" d="M0 0H12.819V218.119H0z" class="prefix__cls-4" data-name="Rectangle 16" transform="translate(39.144 27.323)"/>
                    <path id="prefix__Rectangle_17" d="M0 0H12.819V218.119H0z" class="prefix__cls-4" data-name="Rectangle 17" transform="translate(89.692 27.344)"/>
                    <path id="prefix__Rectangle_18" d="M0 0H12.819V218.119H0z" class="prefix__cls-4" data-name="Rectangle 18" transform="translate(108.161 27.344)"/>
                    <path id="prefix__Rectangle_19" d="M0 0H8.632V218.119H0z" class="prefix__cls-4" data-name="Rectangle 19" transform="translate(126.629 27.344)"/>
                    <path id="prefix__Rectangle_20" d="M0 0H21.416V25.638H0z" class="prefix__cls-4" data-name="Rectangle 20" transform="translate(57.113 27.366)"/>
                    <path id="prefix__Rectangle_21" d="M0 0H21.416V25.638H0z" class="prefix__cls-4" data-name="Rectangle 21" transform="translate(57.113 59.438)"/>
                    <path id="prefix__Rectangle_22" d="M0 0H21.416V25.638H0z" class="prefix__cls-4" data-name="Rectangle 22" transform="translate(57.113 91.512)"/>
                    <path id="prefix__Rectangle_23" d="M0 0H21.416V25.638H0z" class="prefix__cls-4" data-name="Rectangle 23" transform="translate(57.113 123.584)"/>
                    <path id="prefix__Rectangle_24" d="M0 0H21.416V25.638H0z" class="prefix__cls-4" data-name="Rectangle 24" transform="translate(57.113 155.658)"/>
                    <path id="prefix__Rectangle_25" d="M0 0H21.416V25.638H0z" class="prefix__cls-4" data-name="Rectangle 25" transform="translate(57.113 187.731)"/>
                    <path id="prefix__Rectangle_26" d="M0 0H21.416V25.638H0z" class="prefix__cls-4" data-name="Rectangle 26" transform="translate(57.113 219.804)"/>
                    <path id="prefix__Rectangle_27" d="M0 0H31.469V104.273H0z" class="prefix__cls-4" data-name="Rectangle 27" transform="translate(0 141.19)"/>
                    <path id="prefix__Rectangle_28" d="M0 0H28.432V104.273H0z" class="prefix__cls-4" data-name="Rectangle 28" transform="translate(140.952 141.19)"/>
                </g>
                <g id="prefix__Group_10" data-name="Group 10" transform="translate(0 168.3)">
                    <path id="prefix__Rectangle_29" d="M0 0H4.357V252.419H0z" class="prefix__cls-4" data-name="Rectangle 29" transform="translate(149.176 20.646)"/>
                    <path id="prefix__Rectangle_30" d="M0 0H2.179V252.419H0z" class="prefix__cls-4" data-name="Rectangle 30" transform="translate(112.971 20.646)"/>
                    <path id="prefix__Rectangle_31" d="M0 0H9.804V252.419H0z" class="prefix__cls-4" data-name="Rectangle 31" transform="translate(71.865 20.646)"/>
                    <path id="prefix__Rectangle_32" d="M0 0H2.179V252.419H0z" class="prefix__cls-4" data-name="Rectangle 32" transform="translate(38.383 20.646)"/>
                    <path id="prefix__Rectangle_33" d="M0 0H4.357V252.419H0z" class="prefix__cls-4" data-name="Rectangle 33" transform="translate(0 20.646)"/>
                    <path id="prefix__Rectangle_34" d="M0 0H149.228V2.179H0z" class="prefix__cls-4" data-name="Rectangle 34" transform="translate(2.178 95.093)"/>
                    <path id="prefix__Rectangle_35" d="M0 0H149.228V2.179H0z" class="prefix__cls-4" data-name="Rectangle 35" transform="translate(2.178 132.605)"/>
                    <path id="prefix__Line_1" d="M149.228 0L0 0" class="prefix__cls-5" data-name="Line 1" transform="translate(2.178 171.207)"/>
                    <path id="prefix__Line_2" d="M149.228 0L0 0" class="prefix__cls-5" data-name="Line 2" transform="translate(2.178 208.719)"/>
                    <path id="prefix__Rectangle_36" d="M0 0H81.669V28.533H0z" class="prefix__cls-4" data-name="Rectangle 36"/>
                    <path id="prefix__Rectangle_37" d="M0 0H22.25V17.276H0z" class="prefix__cls-4" data-name="Rectangle 37" transform="translate(81.669 11.257)"/>
                    <path id="prefix__Rectangle_38" d="M0 0H16.512V18.965H0z" class="prefix__cls-4" data-name="Rectangle 38" transform="translate(126.26 76.128)"/>
                    <path id="prefix__Rectangle_39" d="M0 0H14.442V10.666H0z" class="prefix__cls-4" data-name="Rectangle 39" transform="translate(92.794 84.427)"/>
                    <path id="prefix__Rectangle_40" d="M0 0H52.885V13.784H0z" class="prefix__cls-4" data-name="Rectangle 40" transform="translate(49.944 118.821)"/>
                    <path id="prefix__Rectangle_41" d="M0 0H12.164V12.165H0z" class="prefix__cls-4" data-name="Rectangle 41" transform="translate(133.876 157.957)"/>
                    <path id="prefix__Rectangle_42" d="M0 0H12.164V12.164H0z" class="prefix__cls-4" data-name="Rectangle 42" transform="translate(126.26 145.792)"/>
                    <path id="prefix__Rectangle_43" d="M0 0H12.164V12.165H0z" class="prefix__cls-4" data-name="Rectangle 43" transform="translate(120.178 157.957)"/>
                    <path id="prefix__Rectangle_44" d="M0 0H14.162V15.432H0z" class="prefix__cls-4" data-name="Rectangle 44" transform="translate(52.9 192.634)"/>
                    <path id="prefix__Rectangle_45" d="M0 0H10.257V10.257H0z" class="prefix__cls-4" data-name="Rectangle 45" transform="translate(22.851 197.81)"/>
                    <path id="prefix__Rectangle_46" d="M0 0H31.692V10.257H0z" class="prefix__cls-4" data-name="Rectangle 46" transform="translate(100.651 197.81)"/>
                </g>
                <g id="prefix__Group_11" data-name="Group 11" transform="translate(381.194 308.919)">
                    <path id="prefix__Rectangle_47" d="M0 0H3.355V194.344H0z" class="prefix__cls-4" data-name="Rectangle 47" transform="translate(114.855 15.896)"/>
                    <path id="prefix__Rectangle_48" d="M0 0H1.677V194.344H0z" class="prefix__cls-4" data-name="Rectangle 48" transform="translate(86.98 15.896)"/>
                    <path id="prefix__Rectangle_49" d="M0 0H7.548V194.344H0z" class="prefix__cls-4" data-name="Rectangle 49" transform="translate(55.331 15.896)"/>
                    <path id="prefix__Rectangle_50" d="M0 0H1.677V194.344H0z" class="prefix__cls-4" data-name="Rectangle 50" transform="translate(29.552 15.896)"/>
                    <path id="prefix__Rectangle_51" d="M0 0H3.354V194.344H0z" class="prefix__cls-4" data-name="Rectangle 51" transform="translate(0 15.896)"/>
                    <path id="prefix__Rectangle_52" d="M0 0H114.895V1.677H0z" class="prefix__cls-4" data-name="Rectangle 52" transform="translate(1.677 73.215)"/>
                    <path id="prefix__Rectangle_53" d="M0 0H114.895V1.677H0z" class="prefix__cls-4" data-name="Rectangle 53" transform="translate(1.677 102.096)"/>
                    <path id="prefix__Line_3" d="M114.894 0L0 0" class="prefix__cls-5" data-name="Line 3" transform="translate(1.677 131.817)"/>
                    <path id="prefix__Line_4" d="M114.894 0L0 0" class="prefix__cls-5" data-name="Line 4" transform="translate(1.677 160.699)"/>
                    <path id="prefix__Rectangle_54" d="M0 0H62.879V21.968H0z" class="prefix__cls-4" data-name="Rectangle 54"/>
                    <path id="prefix__Rectangle_55" d="M0 0H17.131V13.301H0z" class="prefix__cls-4" data-name="Rectangle 55" transform="translate(62.879 8.667)"/>
                    <path id="prefix__Rectangle_56" d="M0 0H12.713V14.602H0z" class="prefix__cls-4" data-name="Rectangle 56" transform="translate(97.211 58.613)"/>
                    <path id="prefix__Rectangle_57" d="M0 0H11.119V8.212H0z" class="prefix__cls-4" data-name="Rectangle 57" transform="translate(71.444 65.003)"/>
                    <path id="prefix__Rectangle_58" d="M0 0H40.718V10.613H0z" class="prefix__cls-4" data-name="Rectangle 58" transform="translate(38.453 91.484)"/>
                    <path id="prefix__Rectangle_59" d="M0 0H9.366V9.366H0z" class="prefix__cls-4" data-name="Rectangle 59" transform="translate(103.075 121.615)"/>
                    <path id="prefix__Rectangle_60" d="M0 0H9.366V9.366H0z" class="prefix__cls-4" data-name="Rectangle 60" transform="translate(97.211 112.249)"/>
                    <path id="prefix__Rectangle_61" d="M0 0H9.366V9.366H0z" class="prefix__cls-4" data-name="Rectangle 61" transform="translate(92.528 121.615)"/>
                    <path id="prefix__Rectangle_62" d="M0 0H10.903V11.882H0z" class="prefix__cls-4" data-name="Rectangle 62" transform="translate(40.73 148.314)"/>
                    <path id="prefix__Rectangle_63" d="M0 0H7.897V7.897H0z" class="prefix__cls-4" data-name="Rectangle 63" transform="translate(17.594 152.299)"/>
                    <path id="prefix__Rectangle_64" d="M0 0H24.4V7.897H0z" class="prefix__cls-4" data-name="Rectangle 64" transform="translate(77.494 152.299)"/>
                </g>
                <g id="prefix__Group_12" data-name="Group 12" transform="translate(473.404 181.66)">
                    <path id="prefix__Rectangle_65" d="M0 0H4.891V283.348H0z" class="prefix__cls-4" data-name="Rectangle 65" transform="translate(0 23.176)"/>
                    <path id="prefix__Rectangle_66" d="M0 0H2.446V283.348H0z" class="prefix__cls-4" data-name="Rectangle 66" transform="translate(43.087 23.176)"/>
                    <path id="prefix__Rectangle_67" d="M0 0H11.005V283.348H0z" class="prefix__cls-4" data-name="Rectangle 67" transform="translate(80.671 23.176)"/>
                    <path id="prefix__Rectangle_68" d="M0 0H2.446V283.348H0z" class="prefix__cls-4" data-name="Rectangle 68" transform="translate(126.814 23.176)"/>
                    <path id="prefix__Rectangle_69" d="M0 0H4.891V283.348H0z" class="prefix__cls-4" data-name="Rectangle 69" transform="translate(167.456 23.176)"/>
                    <path id="prefix__Rectangle_70" d="M0 0H167.513V2.446H0z" class="prefix__cls-4" data-name="Rectangle 70" transform="translate(2.388 106.745)"/>
                    <path id="prefix__Rectangle_71" d="M0 0H167.513V2.446H0z" class="prefix__cls-4" data-name="Rectangle 71" transform="translate(2.388 148.853)"/>
                    <path id="prefix__Line_5" d="M0 0L167.513 0" class="prefix__cls-5" data-name="Line 5" transform="translate(2.388 192.185)"/>
                    <path id="prefix__Line_6" d="M0 0L167.513 0" class="prefix__cls-5" data-name="Line 6" transform="translate(2.388 234.294)"/>
                    <path id="prefix__Rectangle_72" d="M0 0H91.675V32.029H0z" class="prefix__cls-4" data-name="Rectangle 72" transform="translate(80.671)"/>
                    <path id="prefix__Rectangle_73" d="M0 0H24.976V19.393H0z" class="prefix__cls-4" data-name="Rectangle 73" transform="translate(55.694 12.636)"/>
                    <path id="prefix__Rectangle_74" d="M0 0H18.535V21.289H0z" class="prefix__cls-4" data-name="Rectangle 74" transform="translate(12.08 85.456)"/>
                    <path id="prefix__Rectangle_75" d="M0 0H16.212V11.973H0z" class="prefix__cls-4" data-name="Rectangle 75" transform="translate(51.971 94.772)"/>
                    <path id="prefix__Rectangle_76" d="M0 0H59.365V15.473H0z" class="prefix__cls-4" data-name="Rectangle 76" transform="translate(56.917 133.381)"/>
                    <path id="prefix__Rectangle_77" d="M0 0H13.655V13.655H0z" class="prefix__cls-4" data-name="Rectangle 77" transform="translate(8.412 177.311)"/>
                    <path id="prefix__Rectangle_78" d="M0 0H13.655V13.655H0z" class="prefix__cls-4" data-name="Rectangle 78" transform="translate(16.96 163.656)"/>
                    <path id="prefix__Rectangle_79" d="M0 0H13.655V13.655H0z" class="prefix__cls-4" data-name="Rectangle 79" transform="translate(23.788 177.311)"/>
                    <path id="prefix__Rectangle_80" d="M0 0H15.897V17.324H0z" class="prefix__cls-4" data-name="Rectangle 80" transform="translate(97.067 216.238)"/>
                    <path id="prefix__Rectangle_81" d="M0 0H11.513V11.514H0z" class="prefix__cls-4" data-name="Rectangle 81" transform="translate(135.182 222.048)"/>
                    <path id="prefix__Rectangle_82" d="M0 0H35.575V11.514H0z" class="prefix__cls-4" data-name="Rectangle 82" transform="translate(23.788 222.048)"/>
                </g>
                <g id="prefix__Group_15" data-name="Group 15" transform="translate(90.551 126.79)">
                    <g id="prefix__Group_13" data-name="Group 13" transform="translate(5.43 56.514)">
                        <path id="prefix__Path_4" d="M319.079 128.655h-245.8a.928.928 0 0 1-.928-.928v-15.352a.927.927 0 0 1 .928-.928h259.713a.927.927 0 0 1 .688 1.55l-13.914 15.353a.928.928 0 0 1-.687.305zM74.206 126.8h244.462l12.232-13.5H74.206z" class="prefix__cls-4" data-name="Path 4" transform="translate(-72.351 -111.447)"/>
                        <path id="prefix__Path_5" d="M73.279 128.419a.928.928 0 0 1-.6-1.635l17.45-14.813a.927.927 0 0 1 1.2 1.415L73.879 128.2a.919.919 0 0 1-.6.219z" class="prefix__cls-4" data-name="Path 5" transform="translate(-72.351 -111.21)"/>
                        <path id="prefix__Path_6" d="M90.76 128.419a.918.918 0 0 1-.6-.222l-17.45-14.811a.927.927 0 0 1 1.2-1.415l17.45 14.813a.928.928 0 0 1-.6 1.635z" class="prefix__cls-4" data-name="Path 6" transform="translate(-72.326 -111.21)"/>
                        <path id="prefix__Path_7" d="M83.033 128.419a.928.928 0 0 1-.6-1.635l17.448-14.813a.928.928 0 1 1 1.2 1.415L83.632 128.2a.918.918 0 0 1-.599.219z" class="prefix__cls-4" data-name="Path 7" transform="translate(-64.771 -111.21)"/>
                        <path id="prefix__Path_8" d="M100.513 128.419a.918.918 0 0 1-.6-.222l-17.45-14.811a.928.928 0 0 1 1.2-1.415l17.448 14.813a.928.928 0 0 1-.6 1.635z" class="prefix__cls-4" data-name="Path 8" transform="translate(-64.745 -111.21)"/>
                        <path id="prefix__Path_9" d="M92.786 128.419a.928.928 0 0 1-.6-1.635l17.45-14.813a.927.927 0 0 1 1.2 1.415L93.385 128.2a.918.918 0 0 1-.599.219z" class="prefix__cls-4" data-name="Path 9" transform="translate(-57.191 -111.21)"/>
                        <path id="prefix__Path_10" d="M110.267 128.419a.922.922 0 0 1-.6-.222l-17.449-14.811a.927.927 0 0 1 1.2-1.415l17.45 14.813a.928.928 0 0 1-.6 1.635z" class="prefix__cls-4" data-name="Path 10" transform="translate(-57.165 -111.21)"/>
                        <path id="prefix__Path_11" d="M102.538 128.419a.928.928 0 0 1-.6-1.635l17.448-14.813a.928.928 0 1 1 1.2 1.415L103.139 128.2a.919.919 0 0 1-.601.219z" class="prefix__cls-4" data-name="Path 11" transform="translate(-49.61 -111.21)"/>
                        <path id="prefix__Path_12" d="M120.02 128.419a.918.918 0 0 1-.6-.222l-17.45-14.811a.927.927 0 0 1 1.2-1.415l17.45 14.813a.928.928 0 0 1-.6 1.635z" class="prefix__cls-4" data-name="Path 12" transform="translate(-49.585 -111.21)"/>
                        <path id="prefix__Path_13" d="M112.293 128.419a.928.928 0 0 1-.6-1.635l17.45-14.813a.927.927 0 0 1 1.2 1.415L112.892 128.2a.918.918 0 0 1-.599.219z" class="prefix__cls-4" data-name="Path 13" transform="translate(-42.03 -111.21)"/>
                        <path id="prefix__Path_14" d="M129.774 128.419a.919.919 0 0 1-.6-.222l-17.448-14.811a.927.927 0 1 1 1.2-1.415l17.45 14.813a.928.928 0 0 1-.6 1.635z" class="prefix__cls-4" data-name="Path 14" transform="translate(-42.005 -111.21)"/>
                        <path id="prefix__Path_15" d="M122.046 128.419a.928.928 0 0 1-.6-1.635l17.45-14.813a.927.927 0 1 1 1.2 1.415l-17.45 14.814a.919.919 0 0 1-.6.219z" class="prefix__cls-4" data-name="Path 15" transform="translate(-34.45 -111.21)"/>
                        <path id="prefix__Path_16" d="M139.527 128.419a.918.918 0 0 1-.6-.222l-17.45-14.811a.927.927 0 0 1 1.2-1.415l17.45 14.813a.928.928 0 0 1-.6 1.635z" class="prefix__cls-4" data-name="Path 16" transform="translate(-34.425 -111.21)"/>
                        <path id="prefix__Path_17" d="M131.8 128.419a.928.928 0 0 1-.6-1.635l17.448-14.813a.928.928 0 1 1 1.2 1.415L132.4 128.2a.917.917 0 0 1-.6.219z" class="prefix__cls-4" data-name="Path 17" transform="translate(-26.87 -111.21)"/>
                        <path id="prefix__Path_18" d="M149.28 128.419a.918.918 0 0 1-.6-.222l-17.45-14.811a.928.928 0 0 1 1.2-1.415l17.448 14.813a.928.928 0 0 1-.6 1.635z" class="prefix__cls-4" data-name="Path 18" transform="translate(-26.845 -111.21)"/>
                        <path id="prefix__Path_19" d="M141.553 128.419a.928.928 0 0 1-.6-1.635l17.45-14.813a.927.927 0 0 1 1.2 1.415l-17.45 14.814a.926.926 0 0 1-.6.219z" class="prefix__cls-4" data-name="Path 19" transform="translate(-19.29 -111.21)"/>
                        <path id="prefix__Path_20" d="M159.034 128.419a.918.918 0 0 1-.6-.222l-17.45-14.811a.927.927 0 0 1 1.2-1.415l17.45 14.813a.928.928 0 0 1-.6 1.635z" class="prefix__cls-4" data-name="Path 20" transform="translate(-19.264 -111.21)"/>
                        <path id="prefix__Path_21" d="M151.307 128.419a.928.928 0 0 1-.6-1.635l17.448-14.813a.928.928 0 0 1 1.2 1.415L151.906 128.2a.918.918 0 0 1-.599.219z" class="prefix__cls-4" data-name="Path 21" transform="translate(-11.71 -111.21)"/>
                        <path id="prefix__Path_22" d="M168.787 128.419a.918.918 0 0 1-.6-.222l-17.45-14.811a.928.928 0 1 1 1.2-1.415l17.448 14.813a.928.928 0 0 1-.6 1.635z" class="prefix__cls-4" data-name="Path 22" transform="translate(-11.684 -111.21)"/>
                        <path id="prefix__Path_23" d="M161.06 128.419a.928.928 0 0 1-.6-1.635l17.45-14.813a.927.927 0 0 1 1.2 1.415L161.659 128.2a.918.918 0 0 1-.599.219z" class="prefix__cls-4" data-name="Path 23" transform="translate(-4.13 -111.21)"/>
                        <path id="prefix__Path_24" d="M178.541 128.419a.922.922 0 0 1-.6-.222l-17.448-14.811a.927.927 0 0 1 1.2-1.415l17.45 14.813a.928.928 0 0 1-.6 1.635z" class="prefix__cls-4" data-name="Path 24" transform="translate(-4.104 -111.21)"/>
                        <path id="prefix__Path_25" d="M170.812 128.419a.928.928 0 0 1-.6-1.635l17.448-14.813a.928.928 0 0 1 1.2 1.415L171.413 128.2a.919.919 0 0 1-.601.219z" class="prefix__cls-4" data-name="Path 25" transform="translate(3.451 -111.21)"/>
                        <path id="prefix__Path_26" d="M188.294 128.419a.917.917 0 0 1-.6-.222l-17.45-14.811a.927.927 0 0 1 1.2-1.415l17.45 14.813a.928.928 0 0 1-.6 1.635z" class="prefix__cls-4" data-name="Path 26" transform="translate(3.476 -111.21)"/>
                        <path id="prefix__Path_27" d="M180.567 128.419a.928.928 0 0 1-.6-1.635l17.45-14.813a.927.927 0 0 1 1.2 1.415L181.166 128.2a.918.918 0 0 1-.599.219z" class="prefix__cls-4" data-name="Path 27" transform="translate(11.031 -111.21)"/>
                        <path id="prefix__Path_28" d="M198.048 128.419a.919.919 0 0 1-.6-.222L180 113.386a.927.927 0 1 1 1.2-1.415l17.45 14.813a.928.928 0 0 1-.6 1.635z" class="prefix__cls-4" data-name="Path 28" transform="translate(11.056 -111.21)"/>
                        <path id="prefix__Path_29" d="M190.32 128.419a.928.928 0 0 1-.6-1.635l17.45-14.813a.928.928 0 1 1 1.2 1.415L190.92 128.2a.919.919 0 0 1-.6.219z" class="prefix__cls-4" data-name="Path 29" transform="translate(18.611 -111.21)"/>
                        <path id="prefix__Path_30" d="M207.8 128.419a.926.926 0 0 1-.6-.222l-17.448-14.811a.927.927 0 0 1 1.2-1.415l17.45 14.813a.928.928 0 0 1-.6 1.635z" class="prefix__cls-4" data-name="Path 30" transform="translate(18.636 -111.21)"/>
                        <path id="prefix__Path_31" d="M200.072 128.419a.928.928 0 0 1-.6-1.635l17.448-14.813a.928.928 0 1 1 1.2 1.415L200.673 128.2a.919.919 0 0 1-.601.219z" class="prefix__cls-4" data-name="Path 31" transform="translate(26.191 -111.21)"/>
                        <path id="prefix__Path_32" d="M217.556 128.419a.919.919 0 0 1-.6-.222l-17.45-14.811a.928.928 0 1 1 1.2-1.415l17.45 14.813a.928.928 0 0 1-.6 1.635z" class="prefix__cls-4" data-name="Path 32" transform="translate(26.216 -111.211)"/>
                    </g>
                    <g id="prefix__Group_14" data-name="Group 14" transform="translate(56.503 13.12)">
                        <path id="prefix__Path_33" d="M120.1 334.687h-18.083a.928.928 0 0 1-.928-.928V87.958a.928.928 0 0 1 .928-.928H120.1a.928.928 0 0 1 .928.928v245.8a.928.928 0 0 1-.928.929zm-17.16-1.855h16.233V88.885h-16.229z" class="prefix__cls-4" data-name="Path 33" transform="translate(-101.089 -87.03)"/>
                        <path id="prefix__Path_34" d="M119.467 106.335a.923.923 0 0 1-.656-.272l-17.45-17.45a.927.927 0 0 1 1.312-1.312l17.45 17.45a.928.928 0 0 1-.656 1.583z" class="prefix__cls-4" data-name="Path 34" transform="translate(-101.089 -87.029)"/>
                        <path id="prefix__Path_35" d="M102.017 106.368a.928.928 0 0 1-.656-1.583l17.45-17.45a.927.927 0 0 1 1.312 1.312l-17.45 17.45a.923.923 0 0 1-.656.271z" class="prefix__cls-4" data-name="Path 35" transform="translate(-101.089 -87.004)"/>
                        <path id="prefix__Path_36" d="M119.467 116.088a.923.923 0 0 1-.656-.272l-17.45-17.448a.927.927 0 0 1 1.312-1.312l17.45 17.45a.927.927 0 0 1-.656 1.582z" class="prefix__cls-4" data-name="Path 36" transform="translate(-101.089 -79.449)"/>
                        <path id="prefix__Path_37" d="M102.017 116.121a.928.928 0 0 1-.656-1.583l17.45-17.45a.928.928 0 0 1 1.312 1.313l-17.45 17.448a.923.923 0 0 1-.656.272z" class="prefix__cls-4" data-name="Path 37" transform="translate(-101.089 -79.424)"/>
                        <path id="prefix__Path_38" d="M119.467 125.842a.923.923 0 0 1-.656-.272l-17.45-17.45a.927.927 0 0 1 1.312-1.312l17.45 17.45a.928.928 0 0 1-.656 1.583z" class="prefix__cls-4" data-name="Path 38" transform="translate(-101.089 -71.87)"/>
                        <path id="prefix__Path_39" d="M102.017 125.874a.927.927 0 0 1-.656-1.582l17.45-17.45a.927.927 0 0 1 1.312 1.312L102.672 125.6a.916.916 0 0 1-.655.274z" class="prefix__cls-4" data-name="Path 39" transform="translate(-101.089 -71.844)"/>
                        <path id="prefix__Path_40" d="M119.467 135.595a.923.923 0 0 1-.656-.272l-17.45-17.448a.927.927 0 0 1 1.312-1.312l17.45 17.448a.928.928 0 0 1-.656 1.583z" class="prefix__cls-4" data-name="Path 40" transform="translate(-101.089 -64.289)"/>
                        <path id="prefix__Path_41" d="M102.017 135.629a.928.928 0 0 1-.656-1.583l17.45-17.45a.927.927 0 0 1 1.312 1.312l-17.45 17.45a.923.923 0 0 1-.656.271z" class="prefix__cls-4" data-name="Path 41" transform="translate(-101.089 -64.264)"/>
                        <path id="prefix__Path_42" d="M119.467 145.349a.923.923 0 0 1-.656-.272l-17.45-17.45a.927.927 0 0 1 1.312-1.312l17.45 17.45a.928.928 0 0 1-.656 1.583z" class="prefix__cls-4" data-name="Path 42" transform="translate(-101.089 -56.709)"/>
                        <path id="prefix__Path_43" d="M102.017 145.381a.928.928 0 0 1-.656-1.583l17.45-17.448a.927.927 0 0 1 1.312 1.312l-17.45 17.448a.923.923 0 0 1-.656.271z" class="prefix__cls-4" data-name="Path 43" transform="translate(-101.089 -56.684)"/>
                        <path id="prefix__Path_44" d="M119.467 155.1a.923.923 0 0 1-.656-.272l-17.45-17.448a.928.928 0 0 1 1.312-1.313l17.45 17.45a.928.928 0 0 1-.656 1.583z" class="prefix__cls-4" data-name="Path 44" transform="translate(-101.089 -49.129)"/>
                        <path id="prefix__Path_45" d="M102.017 155.135a.928.928 0 0 1-.656-1.583l17.45-17.45a.927.927 0 0 1 1.312 1.312l-17.45 17.45a.923.923 0 0 1-.656.271z" class="prefix__cls-4" data-name="Path 45" transform="translate(-101.089 -49.104)"/>
                        <path id="prefix__Path_46" d="M119.467 164.855a.921.921 0 0 1-.656-.27l-17.45-17.45a.927.927 0 1 1 1.312-1.312l17.45 17.45a.926.926 0 0 1-.656 1.582z" class="prefix__cls-4" data-name="Path 46" transform="translate(-101.089 -41.549)"/>
                        <path id="prefix__Path_47" d="M102.017 164.888a.928.928 0 0 1-.656-1.584l17.45-17.448a.927.927 0 0 1 1.312 1.312l-17.45 17.448a.923.923 0 0 1-.656.272z" class="prefix__cls-4" data-name="Path 47" transform="translate(-101.089 -41.523)"/>
                        <path id="prefix__Path_48" d="M119.467 174.609a.923.923 0 0 1-.656-.272l-17.45-17.45a.927.927 0 0 1 1.312-1.312l17.45 17.45a.928.928 0 0 1-.656 1.583z" class="prefix__cls-4" data-name="Path 48" transform="translate(-101.089 -33.969)"/>
                        <path id="prefix__Path_49" d="M102.017 174.643a.928.928 0 0 1-.656-1.583l17.45-17.45a.927.927 0 0 1 1.312 1.312l-17.45 17.45a.923.923 0 0 1-.656.271z" class="prefix__cls-4" data-name="Path 49" transform="translate(-101.089 -33.943)"/>
                        <path id="prefix__Path_50" d="M119.467 184.362a.923.923 0 0 1-.656-.272l-17.45-17.448a.927.927 0 0 1 1.312-1.312l17.45 17.448a.928.928 0 0 1-.656 1.583z" class="prefix__cls-4" data-name="Path 50" transform="translate(-101.089 -26.388)"/>
                        <path id="prefix__Path_51" d="M102.017 184.4a.928.928 0 0 1-.656-1.583l17.45-17.45a.927.927 0 0 1 1.312 1.312l-17.45 17.45a.923.923 0 0 1-.656.271z" class="prefix__cls-4" data-name="Path 51" transform="translate(-101.089 -26.363)"/>
                        <path id="prefix__Path_52" d="M119.467 194.117a.923.923 0 0 1-.656-.272l-17.45-17.45a.927.927 0 0 1 1.312-1.311l17.45 17.45a.928.928 0 0 1-.656 1.583z" class="prefix__cls-4" data-name="Path 52" transform="translate(-101.089 -18.808)"/>
                        <path id="prefix__Path_53" d="M102.017 194.148a.927.927 0 0 1-.656-1.583l17.45-17.448a.927.927 0 0 1 1.312 1.312l-17.45 17.45a.929.929 0 0 1-.656.269z" class="prefix__cls-4" data-name="Path 53" transform="translate(-101.089 -18.783)"/>
                        <path id="prefix__Path_54" d="M119.467 203.869a.923.923 0 0 1-.656-.272l-17.45-17.448a.927.927 0 0 1 1.312-1.312l17.45 17.448a.928.928 0 0 1-.656 1.584z" class="prefix__cls-4" data-name="Path 54" transform="translate(-101.089 -11.228)"/>
                        <path id="prefix__Path_55" d="M102.017 203.9a.928.928 0 0 1-.656-1.584l17.45-17.45a.927.927 0 0 1 1.312 1.312l-17.45 17.45a.923.923 0 0 1-.656.272z" class="prefix__cls-4" data-name="Path 55" transform="translate(-101.089 -11.203)"/>
                        <path id="prefix__Path_56" d="M119.467 213.623a.923.923 0 0 1-.656-.272l-17.45-17.45a.927.927 0 1 1 1.312-1.311l17.45 17.45a.928.928 0 0 1-.656 1.583z" class="prefix__cls-4" data-name="Path 56" transform="translate(-101.089 -3.648)"/>
                        <path id="prefix__Path_57" d="M102.017 213.655a.928.928 0 0 1-.656-1.583l17.45-17.448a.927.927 0 0 1 1.312 1.312l-17.45 17.448a.923.923 0 0 1-.656.271z" class="prefix__cls-4" data-name="Path 57" transform="translate(-101.089 -3.622)"/>
                        <path id="prefix__Path_58" d="M119.467 223.376a.923.923 0 0 1-.656-.272l-17.45-17.45a.927.927 0 0 1 1.312-1.31l17.45 17.448a.928.928 0 0 1-.656 1.583z" class="prefix__cls-4" data-name="Path 58" transform="translate(-101.089 3.933)"/>
                        <path id="prefix__Path_59" d="M102.017 223.41a.928.928 0 0 1-.656-1.584l17.45-17.45a.927.927 0 0 1 1.312 1.312l-17.45 17.45a.923.923 0 0 1-.656.272z" class="prefix__cls-4" data-name="Path 59" transform="translate(-101.089 3.957)"/>
                        <path id="prefix__Path_60" d="M119.467 233.131a.923.923 0 0 1-.656-.272l-17.45-17.45a.927.927 0 1 1 1.312-1.312l17.45 17.45a.928.928 0 0 1-.656 1.583z" class="prefix__cls-4" data-name="Path 60" transform="translate(-101.089 11.512)"/>
                        <path id="prefix__Path_61" d="M102.017 233.162a.928.928 0 0 1-.656-1.583l17.45-17.448a.927.927 0 1 1 1.312 1.311l-17.45 17.448a.923.923 0 0 1-.656.272z" class="prefix__cls-4" data-name="Path 61" transform="translate(-101.089 11.538)"/>
                    </g>
                    <path id="prefix__Path_62" d="M126.553 99.165h-26.9v38.108h38.03v-15.3zm-19.634 22.812v-14.928h14.264l7.283 14.928z" class="prefix__cls-4" data-name="Path 62" transform="translate(-45.702 -64.479)"/>
                    <path id="prefix__Rectangle_83" d="M0 0H29.991V22.764H0z" class="prefix__cls-4" data-name="Rectangle 83" transform="translate(0 53.74)"/>
                    <circle id="prefix__Ellipse_2" cx="5.082" cy="5.082" r="5.082" class="prefix__cls-4" data-name="Ellipse 2" transform="translate(2.203 40.349)"/>
                    <circle id="prefix__Ellipse_3" cx="5.082" cy="5.082" r="5.082" class="prefix__cls-4" data-name="Ellipse 3" transform="translate(52.349)"/>
                    <circle id="prefix__Ellipse_4" cx="5.082" cy="5.082" r="5.082" class="prefix__cls-4" data-name="Ellipse 4" transform="translate(260.989 47.276)"/>
                    <path id="prefix__Rectangle_84" d="M0 0H2.783V13.459H0z" class="prefix__cls-4" data-name="Rectangle 84" transform="translate(5.894 44.04)"/>
                    <path id="prefix__Rectangle_85" d="M0 0H63.5V1.855H0z" class="prefix__cls-4" data-name="Rectangle 85" transform="rotate(-37.838 66.53 11.857)"/>
                    <path id="prefix__Rectangle_86" d="M0 0H1.856V212.561H0z" class="prefix__cls-4" data-name="Rectangle 86" transform="rotate(-77.11 32.361 -32.902)"/>
                    <path id="prefix__Rectangle_87" d="M0 0H2.783V8.966H0z" class="prefix__cls-4" data-name="Rectangle 87" transform="translate(56.503 5.082)"/>
                    <path id="prefix__Path_63" d="M208.453 151.819a.924.924 0 0 1-.677-.295l-4.793-5.145a.927.927 0 0 1-.249-.633v-24.732a.926.926 0 0 1 .928-.928h9.584a.927.927 0 0 1 .928.928v24.733a.92.92 0 0 1-.251.633l-4.791 5.145a.925.925 0 0 1-.679.294zm-3.864-6.437l3.864 4.15 3.865-4.15v-23.441h-7.729zm8.657.364z" class="prefix__cls-4" data-name="Path 63" transform="translate(34.41 -48.219)"/>
                    <path id="prefix__Rectangle_88" d="M0 0H40.039V31.648H0z" class="prefix__cls-4" data-name="Rectangle 88" transform="translate(222.844 108.659)"/>
                    <path id="prefix__Path_64" d="M206.357 145.666a.926.926 0 0 1-.926-.928v-6.911a.927.927 0 1 1 1.854 0v6.911a.926.926 0 0 1-.928.928z" class="prefix__cls-4" data-name="Path 64" transform="translate(36.506 -35.153)"/>
                    <path id="prefix__Path_65" d="M90.781 129.014v4.374h4.045v13.1h-4.045v4.375h14.164v-21.849z" class="prefix__cls-4" data-name="Path 65" transform="translate(-52.597 -41.281)"/>
                    <path id="prefix__Rectangle_89" d="M0 0H25.374V1.855H0z" class="prefix__cls-4" data-name="Rectangle 89" transform="rotate(-40.064 140.506 -8.61)"/>
                    <path id="prefix__Rectangle_90" d="M0 0H1.855V143.825H0z" class="prefix__cls-4" data-name="Rectangle 90" transform="translate(39.575 106.13)"/>
                </g>
                <g id="prefix__Group_19" data-name="Group 19" transform="translate(498.462 8.886)">
                    <g id="prefix__Group_18" data-name="Group 18">
                        <g id="prefix__Group_16" data-name="Group 16" transform="translate(4.693 63.833)">
                            <path id="prefix__Path_66" d="M317.45 68.314l-15.716-17.341a1.048 1.048 0 0 1 .777-1.751h293.352a1.047 1.047 0 0 1 1.047 1.047V67.61a1.048 1.048 0 0 1-1.047 1.049H318.227a1.041 1.041 0 0 1-.777-.345zm277.364-17H304.875l13.816 15.246h276.123z" class="prefix__cls-4" data-name="Path 66" transform="translate(-301.463 -49.222)"/>
                            <path id="prefix__Path_67" d="M476.195 68.392a1.048 1.048 0 0 0 .679-1.846l-19.709-16.73a1.048 1.048 0 1 0-1.356 1.6l19.709 16.73a1.048 1.048 0 0 0 .677.246z" class="prefix__cls-4" data-name="Path 67" transform="translate(-181.797 -48.955)"/>
                            <path id="prefix__Path_68" d="M456.45 68.392a1.043 1.043 0 0 0 .677-.249l19.709-16.73a1.047 1.047 0 1 0-1.354-1.6l-19.711 16.73a1.048 1.048 0 0 0 .679 1.846z" class="prefix__cls-4" data-name="Path 68" transform="translate(-181.825 -48.955)"/>
                            <path id="prefix__Path_69" d="M465.179 68.392a1.048 1.048 0 0 0 .679-1.846l-19.711-16.73a1.048 1.048 0 1 0-1.356 1.6L464.5 68.143a1.043 1.043 0 0 0 .679.249z" class="prefix__cls-4" data-name="Path 69" transform="translate(-190.359 -48.955)"/>
                            <path id="prefix__Path_70" d="M445.433 68.392a1.043 1.043 0 0 0 .677-.249l19.711-16.73a1.048 1.048 0 1 0-1.356-1.6l-19.709 16.73a1.048 1.048 0 0 0 .677 1.846z" class="prefix__cls-4" data-name="Path 70" transform="translate(-190.387 -48.955)"/>
                            <path id="prefix__Path_71" d="M454.162 68.392a1.048 1.048 0 0 0 .679-1.846L435.13 49.815a1.047 1.047 0 0 0-1.354 1.6l19.709 16.73a1.043 1.043 0 0 0 .677.247z" class="prefix__cls-4" data-name="Path 71" transform="translate(-198.921 -48.955)"/>
                            <path id="prefix__Path_72" d="M434.418 68.392a1.047 1.047 0 0 0 .677-.249l19.705-16.73a1.048 1.048 0 0 0-1.356-1.6l-19.709 16.73a1.048 1.048 0 0 0 .679 1.846z" class="prefix__cls-4" data-name="Path 72" transform="translate(-198.95 -48.955)"/>
                            <path id="prefix__Path_73" d="M443.145 68.392a1.048 1.048 0 0 0 .679-1.846l-19.709-16.73a1.048 1.048 0 1 0-1.356 1.6l19.709 16.73a1.047 1.047 0 0 0 .677.246z" class="prefix__cls-4" data-name="Path 73" transform="translate(-207.483 -48.955)"/>
                            <path id="prefix__Path_74" d="M423.4 68.392a1.043 1.043 0 0 0 .677-.249l19.709-16.73a1.047 1.047 0 0 0-1.354-1.6l-19.711 16.73a1.048 1.048 0 0 0 .679 1.846z" class="prefix__cls-4" data-name="Path 74" transform="translate(-207.511 -48.955)"/>
                            <path id="prefix__Path_75" d="M432.129 68.392a1.048 1.048 0 0 0 .679-1.846L413.1 49.815a1.048 1.048 0 1 0-1.356 1.6l19.711 16.73a1.043 1.043 0 0 0 .674.247z" class="prefix__cls-4" data-name="Path 75" transform="translate(-216.045 -48.955)"/>
                            <path id="prefix__Path_76" d="M412.383 68.392a1.043 1.043 0 0 0 .677-.249l19.711-16.73a1.048 1.048 0 0 0-1.356-1.6L411.7 66.545a1.048 1.048 0 0 0 .679 1.846z" class="prefix__cls-4" data-name="Path 76" transform="translate(-216.073 -48.955)"/>
                            <path id="prefix__Path_77" d="M421.112 68.392a1.048 1.048 0 0 0 .679-1.846L402.08 49.815a1.047 1.047 0 0 0-1.354 1.6l19.709 16.73a1.043 1.043 0 0 0 .677.247z" class="prefix__cls-4" data-name="Path 77" transform="translate(-224.607 -48.955)"/>
                            <path id="prefix__Path_78" d="M401.368 68.392a1.047 1.047 0 0 0 .677-.249l19.709-16.73a1.048 1.048 0 1 0-1.356-1.6l-19.709 16.73a1.048 1.048 0 0 0 .679 1.846z" class="prefix__cls-4" data-name="Path 78" transform="translate(-224.635 -48.955)"/>
                            <path id="prefix__Path_79" d="M410.095 68.392a1.048 1.048 0 0 0 .679-1.846l-19.709-16.73a1.048 1.048 0 0 0-1.356 1.6l19.709 16.73a1.047 1.047 0 0 0 .677.246z" class="prefix__cls-4" data-name="Path 79" transform="translate(-233.169 -48.955)"/>
                            <path id="prefix__Path_80" d="M390.35 68.392a1.043 1.043 0 0 0 .677-.249l19.709-16.73a1.047 1.047 0 0 0-1.354-1.6l-19.711 16.73a1.048 1.048 0 0 0 .679 1.846z" class="prefix__cls-4" data-name="Path 80" transform="translate(-233.197 -48.955)"/>
                            <path id="prefix__Path_81" d="M399.079 68.392a1.048 1.048 0 0 0 .677-1.846l-19.709-16.73a1.048 1.048 0 1 0-1.356 1.6L398.4 68.143a1.04 1.04 0 0 0 .679.249z" class="prefix__cls-4" data-name="Path 81" transform="translate(-241.73 -48.955)"/>
                            <path id="prefix__Path_82" d="M379.333 68.392a1.043 1.043 0 0 0 .677-.249l19.711-16.73a1.048 1.048 0 1 0-1.356-1.6l-19.711 16.73a1.048 1.048 0 0 0 .679 1.846z" class="prefix__cls-4" data-name="Path 82" transform="translate(-241.759 -48.955)"/>
                            <path id="prefix__Path_83" d="M388.062 68.392a1.048 1.048 0 0 0 .679-1.846L369.03 49.815a1.047 1.047 0 0 0-1.354 1.6l19.709 16.73a1.043 1.043 0 0 0 .677.247z" class="prefix__cls-4" data-name="Path 83" transform="translate(-250.293 -48.955)"/>
                            <path id="prefix__Path_84" d="M368.316 68.392a1.048 1.048 0 0 0 .679-.249l19.705-16.73a1.048 1.048 0 1 0-1.356-1.6l-19.709 16.73a1.048 1.048 0 0 0 .677 1.846z" class="prefix__cls-4" data-name="Path 84" transform="translate(-250.321 -48.955)"/>
                            <path id="prefix__Path_85" d="M377.045 68.392a1.048 1.048 0 0 0 .679-1.846l-19.709-16.73a1.048 1.048 0 0 0-1.356 1.6l19.709 16.73a1.047 1.047 0 0 0 .677.246z" class="prefix__cls-4" data-name="Path 85" transform="translate(-258.854 -48.955)"/>
                            <path id="prefix__Path_86" d="M357.3 68.392a1.043 1.043 0 0 0 .677-.249l19.709-16.73a1.048 1.048 0 1 0-1.356-1.6l-19.709 16.73a1.048 1.048 0 0 0 .679 1.846z" class="prefix__cls-4" data-name="Path 86" transform="translate(-258.883 -48.955)"/>
                            <path id="prefix__Path_87" d="M366.029 68.392a1.048 1.048 0 0 0 .677-1.846L347 49.815a1.048 1.048 0 0 0-1.356 1.6l19.711 16.73a1.039 1.039 0 0 0 .674.247z" class="prefix__cls-4" data-name="Path 87" transform="translate(-267.416 -48.955)"/>
                            <path id="prefix__Path_88" d="M346.283 68.392a1.043 1.043 0 0 0 .677-.249l19.711-16.73a1.048 1.048 0 0 0-1.356-1.6L345.6 66.545a1.048 1.048 0 0 0 .679 1.846z" class="prefix__cls-4" data-name="Path 88" transform="translate(-267.445 -48.955)"/>
                            <path id="prefix__Path_89" d="M355.012 68.392a1.048 1.048 0 0 0 .679-1.846L335.98 49.815a1.047 1.047 0 0 0-1.354 1.6l19.709 16.73a1.043 1.043 0 0 0 .677.247z" class="prefix__cls-4" data-name="Path 89" transform="translate(-275.978 -48.955)"/>
                            <path id="prefix__Path_90" d="M335.266 68.392a1.048 1.048 0 0 0 .679-.249l19.709-16.73a1.048 1.048 0 1 0-1.356-1.6l-19.709 16.73a1.048 1.048 0 0 0 .677 1.846z" class="prefix__cls-4" data-name="Path 90" transform="translate(-276.007 -48.955)"/>
                            <path id="prefix__Path_91" d="M343.995 68.392a1.048 1.048 0 0 0 .679-1.846l-19.709-16.73a1.048 1.048 0 1 0-1.356 1.6l19.709 16.73a1.047 1.047 0 0 0 .677.246z" class="prefix__cls-4" data-name="Path 91" transform="translate(-284.54 -48.955)"/>
                            <path id="prefix__Path_92" d="M324.251 68.392a1.043 1.043 0 0 0 .677-.249l19.709-16.73a1.048 1.048 0 0 0-1.356-1.6l-19.709 16.73a1.048 1.048 0 0 0 .679 1.846z" class="prefix__cls-4" data-name="Path 92" transform="translate(-284.569 -48.955)"/>
                            <path id="prefix__Path_93" d="M332.98 68.392a1.048 1.048 0 0 0 .679-1.846l-19.711-16.73a1.048 1.048 0 1 0-1.356 1.6L332.3 68.143a1.048 1.048 0 0 0 .68.249z" class="prefix__cls-4" data-name="Path 93" transform="translate(-293.102 -48.955)"/>
                            <path id="prefix__Path_94" d="M313.233 68.392a1.052 1.052 0 0 0 .679-.249l19.709-16.73a1.048 1.048 0 1 0-1.356-1.6l-19.711 16.73a1.048 1.048 0 0 0 .679 1.846z" class="prefix__cls-4" data-name="Path 94" transform="translate(-293.131 -48.955)"/>
                        </g>
                        <g id="prefix__Group_17" data-name="Group 17" transform="translate(219.926 14.82)">
                            <path id="prefix__Path_95" d="M422.573 300.328V22.692a1.048 1.048 0 0 1 1.049-1.049h20.428a1.048 1.048 0 0 1 1.049 1.049v277.636a1.048 1.048 0 0 1-1.049 1.049h-20.428a1.048 1.048 0 0 1-1.049-1.049zM443 23.738h-18.332v275.541H443z" class="prefix__cls-4" data-name="Path 95" transform="translate(-422.573 -21.643)"/>
                            <path id="prefix__Path_96" d="M424.026 43.449a1.045 1.045 0 0 0 .741-.307l19.709-19.709a1.048 1.048 0 0 0-1.482-1.482l-19.709 19.71a1.048 1.048 0 0 0 .741 1.788z" class="prefix__cls-4" data-name="Path 96" transform="translate(-422.258 -21.643)"/>
                            <path id="prefix__Path_97" d="M443.735 43.486a1.049 1.049 0 0 0 .741-1.79l-19.709-19.709a1.048 1.048 0 1 0-1.482 1.482l19.709 19.709a1.049 1.049 0 0 0 .741.308z" class="prefix__cls-4" data-name="Path 97" transform="translate(-422.258 -21.614)"/>
                            <path id="prefix__Path_98" d="M424.026 54.466a1.045 1.045 0 0 0 .741-.307l19.709-19.711a1.047 1.047 0 1 0-1.482-1.48l-19.709 19.709a1.049 1.049 0 0 0 .741 1.79z" class="prefix__cls-4" data-name="Path 98" transform="translate(-422.258 -13.081)"/>
                            <path id="prefix__Path_99" d="M443.735 54.5a1.047 1.047 0 0 0 .741-1.788L424.767 33a1.047 1.047 0 1 0-1.482 1.48l19.709 19.72a1.047 1.047 0 0 0 .741.3z" class="prefix__cls-4" data-name="Path 99" transform="translate(-422.258 -13.052)"/>
                            <path id="prefix__Path_100" d="M424.026 65.482a1.038 1.038 0 0 0 .741-.307l19.709-19.709a1.048 1.048 0 0 0-1.482-1.482l-19.709 19.71a1.048 1.048 0 0 0 .741 1.788z" class="prefix__cls-4" data-name="Path 100" transform="translate(-422.258 -4.519)"/>
                            <path id="prefix__Path_101" d="M443.735 65.519a1.048 1.048 0 0 0 .741-1.788L424.767 44.02a1.048 1.048 0 1 0-1.482 1.482l19.709 19.709a1.049 1.049 0 0 0 .741.308z" class="prefix__cls-4" data-name="Path 101" transform="translate(-422.258 -4.49)"/>
                            <path id="prefix__Path_102" d="M424.026 76.5a1.045 1.045 0 0 0 .741-.307l19.709-19.709A1.048 1.048 0 0 0 442.994 55l-19.709 19.711a1.048 1.048 0 0 0 .741 1.788z" class="prefix__cls-4" data-name="Path 102" transform="translate(-422.258 4.043)"/>
                            <path id="prefix__Path_103" d="M443.735 76.536a1.049 1.049 0 0 0 .741-1.79l-19.709-19.709a1.048 1.048 0 0 0-1.482 1.482l19.709 19.709a1.049 1.049 0 0 0 .741.308z" class="prefix__cls-4" data-name="Path 103" transform="translate(-422.258 4.072)"/>
                            <path id="prefix__Path_104" d="M424.026 87.516a1.045 1.045 0 0 0 .741-.307L444.476 67.5a1.047 1.047 0 0 0-1.482-1.48l-19.709 19.706a1.049 1.049 0 0 0 .741 1.79z" class="prefix__cls-4" data-name="Path 104" transform="translate(-422.258 12.605)"/>
                            <path id="prefix__Path_105" d="M443.735 87.551a1.047 1.047 0 0 0 .741-1.788l-19.709-19.708a1.047 1.047 0 0 0-1.482 1.48l19.709 19.711a1.047 1.047 0 0 0 .741.305z" class="prefix__cls-4" data-name="Path 105" transform="translate(-422.258 12.633)"/>
                            <path id="prefix__Path_106" d="M424.026 98.531a1.038 1.038 0 0 0 .741-.307l19.709-19.709a1.047 1.047 0 0 0-1.482-1.48l-19.709 19.709a1.048 1.048 0 0 0 .741 1.788z" class="prefix__cls-4" data-name="Path 106" transform="translate(-422.258 21.167)"/>
                            <path id="prefix__Path_107" d="M443.735 98.569a1.048 1.048 0 0 0 .741-1.788L424.767 77.07a1.048 1.048 0 0 0-1.482 1.482l19.709 19.709a1.049 1.049 0 0 0 .741.308z" class="prefix__cls-4" data-name="Path 107" transform="translate(-422.258 21.195)"/>
                            <path id="prefix__Path_108" d="M424.026 109.549a1.045 1.045 0 0 0 .741-.307l19.709-19.709a1.048 1.048 0 0 0-1.482-1.482l-19.709 19.711a1.048 1.048 0 0 0 .741 1.788z" class="prefix__cls-4" data-name="Path 108" transform="translate(-422.258 29.729)"/>
                            <path id="prefix__Path_109" d="M443.735 109.586a1.049 1.049 0 0 0 .741-1.79l-19.709-19.709a1.048 1.048 0 0 0-1.482 1.482l19.709 19.709a1.049 1.049 0 0 0 .741.308z" class="prefix__cls-4" data-name="Path 109" transform="translate(-422.258 29.758)"/>
                            <path id="prefix__Path_110" d="M424.026 120.564a1.043 1.043 0 0 0 .741-.306l19.709-19.711a1.047 1.047 0 0 0-1.482-1.48l-19.709 19.709a1.047 1.047 0 0 0 .741 1.788z" class="prefix__cls-4" data-name="Path 110" transform="translate(-422.258 38.291)"/>
                            <path id="prefix__Path_111" d="M443.735 120.6a1.047 1.047 0 0 0 .741-1.788L424.767 99.1a1.047 1.047 0 0 0-1.482 1.48l19.709 19.72a1.047 1.047 0 0 0 .741.3z" class="prefix__cls-4" data-name="Path 111" transform="translate(-422.258 38.319)"/>
                            <path id="prefix__Path_112" d="M424.026 131.582a1.038 1.038 0 0 0 .741-.307l19.709-19.709a1.048 1.048 0 1 0-1.482-1.482l-19.709 19.711a1.048 1.048 0 0 0 .741 1.788z" class="prefix__cls-4" data-name="Path 112" transform="translate(-422.258 46.852)"/>
                            <path id="prefix__Path_113" d="M443.735 131.619a1.048 1.048 0 0 0 .741-1.788l-19.709-19.711a1.048 1.048 0 0 0-1.482 1.482l19.709 19.709a1.049 1.049 0 0 0 .741.308z" class="prefix__cls-4" data-name="Path 113" transform="translate(-422.258 46.881)"/>
                            <path id="prefix__Path_114" d="M424.026 142.6a1.045 1.045 0 0 0 .741-.307l19.709-19.709a1.048 1.048 0 0 0-1.482-1.482l-19.709 19.709a1.048 1.048 0 0 0 .741 1.79z" class="prefix__cls-4" data-name="Path 114" transform="translate(-422.258 55.415)"/>
                            <path id="prefix__Path_115" d="M443.735 142.636a1.049 1.049 0 0 0 .741-1.79l-19.709-19.709a1.048 1.048 0 1 0-1.482 1.482l19.709 19.709a1.049 1.049 0 0 0 .741.308z" class="prefix__cls-4" data-name="Path 115" transform="translate(-422.258 55.443)"/>
                            <path id="prefix__Path_116" d="M424.026 153.614a1.043 1.043 0 0 0 .741-.306l19.709-19.708a1.047 1.047 0 1 0-1.482-1.48l-19.709 19.709a1.047 1.047 0 0 0 .741 1.788z" class="prefix__cls-4" data-name="Path 116" transform="translate(-422.258 63.976)"/>
                            <path id="prefix__Path_117" d="M443.735 153.651a1.047 1.047 0 0 0 .741-1.788l-19.709-19.709a1.047 1.047 0 0 0-1.482 1.48l19.709 19.711a1.047 1.047 0 0 0 .741.306z" class="prefix__cls-4" data-name="Path 117" transform="translate(-422.258 64.005)"/>
                            <path id="prefix__Path_118" d="M424.026 164.632a1.038 1.038 0 0 0 .741-.307l19.709-19.709a1.048 1.048 0 0 0-1.482-1.482l-19.709 19.711a1.048 1.048 0 0 0 .741 1.788z" class="prefix__cls-4" data-name="Path 118" transform="translate(-422.258 72.538)"/>
                            <path id="prefix__Path_119" d="M443.735 164.669a1.048 1.048 0 0 0 .741-1.788l-19.709-19.711a1.048 1.048 0 0 0-1.482 1.482l19.709 19.709a1.049 1.049 0 0 0 .741.308z" class="prefix__cls-4" data-name="Path 119" transform="translate(-422.258 72.567)"/>
                            <path id="prefix__Path_120" d="M424.026 175.649a1.046 1.046 0 0 0 .741-.307l19.709-19.709a1.048 1.048 0 0 0-1.482-1.482l-19.709 19.709a1.049 1.049 0 0 0 .741 1.79z" class="prefix__cls-4" data-name="Path 120" transform="translate(-422.258 81.1)"/>
                            <path id="prefix__Path_121" d="M443.735 175.686a1.048 1.048 0 0 0 .741-1.79l-19.709-19.709a1.048 1.048 0 0 0-1.482 1.482l19.709 19.709a1.049 1.049 0 0 0 .741.308z" class="prefix__cls-4" data-name="Path 121" transform="translate(-422.258 81.129)"/>
                            <path id="prefix__Path_122" d="M424.026 186.666a1.045 1.045 0 0 0 .741-.307l19.709-19.709a1.048 1.048 0 0 0-1.482-1.482l-19.709 19.709a1.048 1.048 0 0 0 .741 1.79z" class="prefix__cls-4" data-name="Path 122" transform="translate(-422.258 89.663)"/>
                            <path id="prefix__Path_123" d="M443.735 186.7a1.047 1.047 0 0 0 .741-1.788L424.767 165.2a1.047 1.047 0 0 0-1.482 1.48l19.709 19.72a1.047 1.047 0 0 0 .741.3z" class="prefix__cls-4" data-name="Path 123" transform="translate(-422.258 89.691)"/>
                        </g>
                        <path id="prefix__Path_124" d="M412.7 61.116v17.275h42.954V35.35h-30.383zm10.411 0l8.227-16.86h16.11v16.86z" class="prefix__cls-4" data-name="Path 124" transform="translate(-210.321 3.83)"/>
                        <path id="prefix__Rectangle_91" d="M0 0H33.875V25.712H0z" class="prefix__cls-4" data-name="Rectangle 91" transform="translate(272.398 60.7)"/>
                        <path id="prefix__Path_125" d="M463.3 44.688a5.74 5.74 0 1 0 5.74-5.74 5.74 5.74 0 0 0-5.74 5.74z" class="prefix__cls-4" data-name="Path 125" transform="translate(-170.996 6.626)"/>
                        <path id="prefix__Path_126" d="M431.428 19.044a5.74 5.74 0 1 0 5.74-5.74 5.74 5.74 0 0 0-5.74 5.74z" class="prefix__cls-4" data-name="Path 126" transform="translate(-195.765 -13.304)"/>
                        <path id="prefix__Path_127" d="M298.823 49.091a5.74 5.74 0 1 0 5.74-5.74 5.74 5.74 0 0 0-5.74 5.74z" class="prefix__cls-4" data-name="Path 127" transform="translate(-298.823 10.048)"/>
                        <path id="prefix__Rectangle_92" d="M0 0H3.143V15.202H0z" class="prefix__cls-4" data-name="Rectangle 92" transform="translate(296.473 49.744)"/>
                        <path id="prefix__Rectangle_93" d="M0 0H2.095V71.724H0z" class="prefix__cls-4" data-name="Rectangle 93" transform="rotate(-52.161 127.091 -242.653)"/>
                        <path id="prefix__Rectangle_94" d="M0 0H240.092V2.096H0z" class="prefix__cls-4" data-name="Rectangle 94" transform="rotate(-12.859 261.565 -2.427)"/>
                        <path id="prefix__Rectangle_95" d="M0 0H3.143V10.127H0z" class="prefix__cls-4" data-name="Rectangle 95" transform="translate(239.308 5.741)"/>
                        <path id="prefix__Path_128" d="M318.386 86.281l-4.162-4.468a.809.809 0 0 1-.215-.549V59.785a.8.8 0 0 1 .805-.805h8.322a.805.805 0 0 1 .805.805v21.479a.8.8 0 0 1-.217.549l-4.161 4.468a.806.806 0 0 1-1.178 0zm3.945-25.691h-6.712v20.356l3.355 3.6 3.357-3.6zm-7.526 20.674z" class="prefix__cls-4" data-name="Path 128" transform="translate(-287.021 22.194)"/>
                        <path id="prefix__Rectangle_96" d="M0 0H34.769V27.482H0z" class="prefix__cls-4" data-name="Rectangle 96" transform="translate(14.57 113.123)"/>
                        <path id="prefix__Path_129" d="M317.155 81.194a.8.8 0 0 0 .805-.805v-6a.805.805 0 1 0-1.61 0v6a.805.805 0 0 0 .805.805z" class="prefix__cls-4" data-name="Path 129" transform="translate(-285.201 33.54)"/>
                        <path id="prefix__Path_130" d="M453.887 69.064v4.941h-4.569v14.8h4.569v4.941h-16V69.064z" class="prefix__cls-4" data-name="Path 130" transform="translate(-190.744 30.032)"/>
                        <path id="prefix__Rectangle_97" d="M0 0H2.095V28.661H0z" class="prefix__cls-4" data-name="Rectangle 97" transform="rotate(-49.935 208.897 -215.659)"/>
                        <path id="prefix__Rectangle_98" d="M0 0H2.095V162.453H0z" class="prefix__cls-4" data-name="Rectangle 98" transform="translate(259.476 119.876)"/>
                    </g>
                </g>
                <g id="prefix__Group_23" data-name="Group 23" transform="translate(23.538)">
                    <g id="prefix__Group_22" data-name="Group 22">
                        <g id="prefix__Group_20" data-name="Group 20" transform="translate(8.95 93.144)">
                            <path id="prefix__Path_131" d="M443.275 89.077H38.152a1.53 1.53 0 0 1-1.528-1.53v-25.3a1.528 1.528 0 0 1 1.528-1.528h428.054a1.529 1.529 0 0 1 1.134 2.554l-22.933 25.301a1.527 1.527 0 0 1-1.132.503zM39.683 86.018H442.6l20.162-22.247H39.683z" class="prefix__cls-4" data-name="Path 131" transform="translate(-36.624 -60.715)"/>
                            <path id="prefix__Path_132" d="M38.154 88.687a1.529 1.529 0 0 1-.99-2.694l28.76-24.413a1.528 1.528 0 1 1 1.976 2.33L39.142 88.323a1.529 1.529 0 0 1-.988.364z" class="prefix__cls-4" data-name="Path 132" transform="translate(-36.624 -60.325)"/>
                            <path id="prefix__Path_133" d="M66.967 88.687a1.53 1.53 0 0 1-.99-.364L37.217 63.91a1.529 1.529 0 1 1 1.98-2.33l28.76 24.413a1.529 1.529 0 0 1-.99 2.694z" class="prefix__cls-4" data-name="Path 133" transform="translate(-36.582 -60.325)"/>
                            <path id="prefix__Path_134" d="M54.229 88.687a1.529 1.529 0 0 1-.99-2.694L82 61.58a1.528 1.528 0 0 1 1.978 2.33L55.217 88.323a1.526 1.526 0 0 1-.988.364z" class="prefix__cls-4" data-name="Path 134" transform="translate(-24.131 -60.325)"/>
                            <path id="prefix__Path_135" d="M83.041 88.687a1.522 1.522 0 0 1-.988-.364L53.293 63.91a1.528 1.528 0 1 1 1.978-2.33l28.76 24.413a1.529 1.529 0 0 1-.99 2.694z" class="prefix__cls-4" data-name="Path 135" transform="translate(-24.089 -60.325)"/>
                            <path id="prefix__Path_136" d="M70.3 88.687a1.529 1.529 0 0 1-.99-2.694L98.074 61.58a1.528 1.528 0 1 1 1.978 2.33l-28.76 24.413a1.522 1.522 0 0 1-.992.364z" class="prefix__cls-4" data-name="Path 136" transform="translate(-11.637 -60.325)"/>
                            <path id="prefix__Path_137" d="M99.116 88.687a1.529 1.529 0 0 1-.988-.364L69.368 63.91a1.528 1.528 0 0 1 1.978-2.33l28.76 24.413a1.529 1.529 0 0 1-.99 2.694z" class="prefix__cls-4" data-name="Path 137" transform="translate(-11.595 -60.325)"/>
                            <path id="prefix__Path_138" d="M86.38 88.687a1.529 1.529 0 0 1-.99-2.694l28.759-24.413a1.529 1.529 0 1 1 1.98 2.33L87.368 88.323a1.529 1.529 0 0 1-.988.364z" class="prefix__cls-4" data-name="Path 138" transform="translate(.856 -60.325)"/>
                            <path id="prefix__Path_139" d="M115.191 88.687a1.529 1.529 0 0 1-.988-.364L85.444 63.91a1.528 1.528 0 1 1 1.976-2.33l28.76 24.413a1.529 1.529 0 0 1-.99 2.694z" class="prefix__cls-4" data-name="Path 139" transform="translate(.898 -60.325)"/>
                            <path id="prefix__Path_140" d="M102.455 88.687a1.529 1.529 0 0 1-.99-2.694l28.76-24.413a1.528 1.528 0 0 1 1.978 2.33l-28.76 24.413a1.529 1.529 0 0 1-.988.364z" class="prefix__cls-4" data-name="Path 140" transform="translate(13.349 -60.325)"/>
                            <path id="prefix__Path_141" d="M131.267 88.687a1.522 1.522 0 0 1-.988-.364l-28.76-24.413a1.528 1.528 0 0 1 1.978-2.33l28.76 24.413a1.529 1.529 0 0 1-.99 2.694z" class="prefix__cls-4" data-name="Path 141" transform="translate(13.391 -60.325)"/>
                            <path id="prefix__Path_142" d="M118.53 88.687a1.529 1.529 0 0 1-.99-2.694L146.3 61.58a1.528 1.528 0 0 1 1.978 2.33l-28.76 24.413a1.522 1.522 0 0 1-.988.364z" class="prefix__cls-4" data-name="Path 142" transform="translate(25.843 -60.325)"/>
                            <path id="prefix__Path_143" d="M147.342 88.687a1.526 1.526 0 0 1-.988-.364l-28.76-24.413a1.528 1.528 0 0 1 1.978-2.33l28.76 24.413a1.529 1.529 0 0 1-.99 2.694z" class="prefix__cls-4" data-name="Path 143" transform="translate(25.885 -60.325)"/>
                            <path id="prefix__Path_144" d="M134.606 88.687a1.528 1.528 0 0 1-.99-2.694l28.759-24.413a1.528 1.528 0 1 1 1.978 2.33l-28.759 24.413a1.529 1.529 0 0 1-.988.364z" class="prefix__cls-4" data-name="Path 144" transform="translate(38.336 -60.325)"/>
                            <path id="prefix__Path_145" d="M163.417 88.687a1.529 1.529 0 0 1-.988-.364l-28.76-24.413a1.528 1.528 0 1 1 1.978-2.33l28.76 24.413a1.529 1.529 0 0 1-.99 2.694z" class="prefix__cls-4" data-name="Path 145" transform="translate(38.378 -60.325)"/>
                            <path id="prefix__Path_146" d="M150.681 88.687a1.529 1.529 0 0 1-.99-2.694l28.76-24.413a1.528 1.528 0 0 1 1.978 2.33l-28.76 24.413a1.529 1.529 0 0 1-.988.364z" class="prefix__cls-4" data-name="Path 146" transform="translate(50.83 -60.325)"/>
                            <path id="prefix__Path_147" d="M179.493 88.687a1.53 1.53 0 0 1-.99-.364L149.745 63.91a1.528 1.528 0 0 1 1.978-2.33l28.76 24.413a1.529 1.529 0 0 1-.99 2.694z" class="prefix__cls-4" data-name="Path 147" transform="translate(50.872 -60.325)"/>
                            <path id="prefix__Path_148" d="M166.756 88.687a1.529 1.529 0 0 1-.99-2.694l28.76-24.413a1.528 1.528 0 0 1 1.978 2.33l-28.76 24.413a1.522 1.522 0 0 1-.988.364z" class="prefix__cls-4" data-name="Path 148" transform="translate(63.323 -60.325)"/>
                            <path id="prefix__Path_149" d="M195.568 88.687a1.522 1.522 0 0 1-.988-.364L165.82 63.91a1.528 1.528 0 1 1 1.978-2.33l28.76 24.413a1.529 1.529 0 0 1-.99 2.694z" class="prefix__cls-4" data-name="Path 149" transform="translate(63.365 -60.325)"/>
                            <path id="prefix__Path_150" d="M182.831 88.687a1.529 1.529 0 0 1-.99-2.694L210.6 61.58a1.528 1.528 0 1 1 1.978 2.33L183.82 88.323a1.53 1.53 0 0 1-.989.364z" class="prefix__cls-4" data-name="Path 150" transform="translate(75.817 -60.325)"/>
                            <path id="prefix__Path_151" d="M211.643 88.687a1.529 1.529 0 0 1-.988-.364l-28.76-24.413a1.528 1.528 0 1 1 1.978-2.33l28.76 24.413a1.529 1.529 0 0 1-.99 2.694z" class="prefix__cls-4" data-name="Path 151" transform="translate(75.859 -60.325)"/>
                            <path id="prefix__Path_152" d="M198.907 88.687a1.529 1.529 0 0 1-.99-2.694l28.76-24.413a1.528 1.528 0 1 1 1.978 2.33L199.9 88.323a1.529 1.529 0 0 1-.993.364z" class="prefix__cls-4" data-name="Path 152" transform="translate(88.31 -60.325)"/>
                            <path id="prefix__Path_153" d="M227.72 88.687a1.53 1.53 0 0 1-.99-.364L197.971 63.91a1.528 1.528 0 1 1 1.978-2.33l28.758 24.413a1.528 1.528 0 0 1-.988 2.694z" class="prefix__cls-4" data-name="Path 153" transform="translate(88.352 -60.325)"/>
                            <path id="prefix__Path_154" d="M214.982 88.687a1.529 1.529 0 0 1-.99-2.694l28.76-24.413a1.528 1.528 0 1 1 1.978 2.33l-28.76 24.413a1.526 1.526 0 0 1-.988.364z" class="prefix__cls-4" data-name="Path 154" transform="translate(100.804 -60.325)"/>
                            <path id="prefix__Path_155" d="M243.794 88.687a1.522 1.522 0 0 1-.988-.364l-28.76-24.413a1.528 1.528 0 1 1 1.978-2.33l28.76 24.413a1.529 1.529 0 0 1-.99 2.694z" class="prefix__cls-4" data-name="Path 155" transform="translate(100.845 -60.325)"/>
                            <path id="prefix__Path_156" d="M231.057 88.687a1.529 1.529 0 0 1-.99-2.694l28.76-24.413a1.529 1.529 0 1 1 1.98 2.33l-28.762 24.413a1.522 1.522 0 0 1-.988.364z" class="prefix__cls-4" data-name="Path 156" transform="translate(113.297 -60.325)"/>
                            <path id="prefix__Path_157" d="M259.871 88.687a1.527 1.527 0 0 1-.99-.364l-28.76-24.413a1.528 1.528 0 1 1 1.978-2.33l28.76 24.413a1.528 1.528 0 0 1-.988 2.694z" class="prefix__cls-4" data-name="Path 157" transform="translate(113.339 -60.325)"/>
                            <path id="prefix__Path_158" d="M247.131 88.687a1.529 1.529 0 0 1-.99-2.694L274.9 61.58a1.529 1.529 0 1 1 1.98 2.33l-28.76 24.413a1.527 1.527 0 0 1-.989.364z" class="prefix__cls-4" data-name="Path 158" transform="translate(125.79 -60.325)"/>
                            <path id="prefix__Path_159" d="M275.946 88.687a1.526 1.526 0 0 1-.99-.364L246.2 63.91a1.529 1.529 0 1 1 1.98-2.33l28.76 24.413a1.529 1.529 0 0 1-.99 2.694z" class="prefix__cls-4" data-name="Path 159" transform="translate(125.832 -60.325)"/>
                        </g>
                        <g id="prefix__Group_21" data-name="Group 21" transform="translate(93.127 21.626)">
                            <path id="prefix__Path_160" d="M115.329 428.652H85.518a1.529 1.529 0 0 1-1.528-1.53V22a1.528 1.528 0 0 1 1.528-1.528h29.81A1.528 1.528 0 0 1 116.857 22v405.12a1.529 1.529 0 0 1-1.528 1.532zm-28.282-3.059H113.8V23.53H87.047z" class="prefix__cls-4" data-name="Path 160" transform="translate(-83.99 -20.473)"/>
                            <path id="prefix__Path_161" d="M114.278 52.29a1.523 1.523 0 0 1-1.081-.448l-28.76-28.76a1.528 1.528 0 0 1 2.163-2.161l28.76 28.76a1.528 1.528 0 0 1-1.08 2.609z" class="prefix__cls-4" data-name="Path 161" transform="translate(-83.99 -20.473)"/>
                            <path id="prefix__Path_162" d="M85.518 52.345a1.529 1.529 0 0 1-1.081-2.611l28.76-28.76a1.529 1.529 0 0 1 2.161 2.163L86.6 51.9a1.523 1.523 0 0 1-1.082.445z" class="prefix__cls-4" data-name="Path 162" transform="translate(-83.99 -20.432)"/>
                            <path id="prefix__Path_163" d="M114.278 68.365a1.523 1.523 0 0 1-1.081-.448l-28.76-28.76A1.528 1.528 0 1 1 86.6 37l28.76 28.76a1.528 1.528 0 0 1-1.08 2.609z" class="prefix__cls-4" data-name="Path 163" transform="translate(-83.99 -7.98)"/>
                            <path id="prefix__Path_164" d="M85.518 68.419a1.528 1.528 0 0 1-1.081-2.609L113.2 37.05a1.528 1.528 0 1 1 2.161 2.161L86.6 67.971a1.523 1.523 0 0 1-1.082.448z" class="prefix__cls-4" data-name="Path 164" transform="translate(-83.99 -7.938)"/>
                            <path id="prefix__Path_165" d="M114.278 84.44a1.521 1.521 0 0 1-1.081-.446l-28.76-28.76a1.529 1.529 0 0 1 2.163-2.163l28.76 28.76a1.527 1.527 0 0 1-1.08 2.609z" class="prefix__cls-4" data-name="Path 165" transform="translate(-83.99 4.513)"/>
                            <path id="prefix__Path_166" d="M85.518 84.494a1.528 1.528 0 0 1-1.081-2.609l28.76-28.76a1.528 1.528 0 1 1 2.161 2.161L86.6 84.046a1.523 1.523 0 0 1-1.082.448z" class="prefix__cls-4" data-name="Path 166" transform="translate(-83.99 4.555)"/>
                            <path id="prefix__Path_167" d="M114.278 100.517a1.523 1.523 0 0 1-1.081-.448l-28.76-28.76a1.529 1.529 0 1 1 2.163-2.163l28.76 28.76a1.529 1.529 0 0 1-1.08 2.611z" class="prefix__cls-4" data-name="Path 167" transform="translate(-83.99 17.006)"/>
                            <path id="prefix__Path_168" d="M85.518 100.571a1.529 1.529 0 0 1-1.081-2.611L113.2 69.2a1.529 1.529 0 0 1 2.161 2.163L86.6 100.123a1.523 1.523 0 0 1-1.082.448z" class="prefix__cls-4" data-name="Path 168" transform="translate(-83.99 17.048)"/>
                            <path id="prefix__Path_169" d="M114.278 116.591a1.524 1.524 0 0 1-1.081-.448l-28.76-28.76a1.528 1.528 0 0 1 2.163-2.161l28.76 28.76a1.528 1.528 0 0 1-1.08 2.609z" class="prefix__cls-4" data-name="Path 169" transform="translate(-83.99 29.5)"/>
                            <path id="prefix__Path_170" d="M85.518 116.645a1.529 1.529 0 0 1-1.081-2.611L113.2 85.276a1.528 1.528 0 0 1 2.161 2.161L86.6 116.2a1.523 1.523 0 0 1-1.082.445z" class="prefix__cls-4" data-name="Path 170" transform="translate(-83.99 29.542)"/>
                            <path id="prefix__Path_171" d="M114.278 132.666a1.524 1.524 0 0 1-1.081-.448L84.438 103.46a1.529 1.529 0 0 1 2.162-2.16l28.76 28.76a1.528 1.528 0 0 1-1.08 2.609z" class="prefix__cls-4" data-name="Path 171" transform="translate(-83.99 41.994)"/>
                            <path id="prefix__Path_172" d="M85.518 132.72a1.528 1.528 0 0 1-1.081-2.609l28.76-28.76a1.528 1.528 0 1 1 2.161 2.161L86.6 132.272a1.523 1.523 0 0 1-1.082.448z" class="prefix__cls-4" data-name="Path 172" transform="translate(-83.99 42.035)"/>
                            <path id="prefix__Path_173" d="M114.278 148.743a1.523 1.523 0 0 1-1.081-.448l-28.76-28.76a1.529 1.529 0 1 1 2.161-2.163l28.76 28.76a1.529 1.529 0 0 1-1.08 2.611z" class="prefix__cls-4" data-name="Path 173" transform="translate(-83.99 54.487)"/>
                            <path id="prefix__Path_174" d="M85.518 148.8a1.529 1.529 0 0 1-1.081-2.611l28.76-28.76a1.529 1.529 0 0 1 2.161 2.163L86.6 148.349a1.531 1.531 0 0 1-1.082.451z" class="prefix__cls-4" data-name="Path 174" transform="translate(-83.99 54.529)"/>
                            <path id="prefix__Path_175" d="M114.278 164.817a1.524 1.524 0 0 1-1.081-.448l-28.76-28.76a1.528 1.528 0 0 1 2.161-2.161l28.76 28.76a1.528 1.528 0 0 1-1.08 2.609z" class="prefix__cls-4" data-name="Path 175" transform="translate(-83.99 66.981)"/>
                            <path id="prefix__Path_176" d="M85.518 164.871a1.529 1.529 0 0 1-1.081-2.611L113.2 133.5a1.528 1.528 0 0 1 2.161 2.161L86.6 164.423a1.523 1.523 0 0 1-1.082.448z" class="prefix__cls-4" data-name="Path 176" transform="translate(-83.99 67.023)"/>
                            <path id="prefix__Path_177" d="M114.278 180.892a1.523 1.523 0 0 1-1.081-.448l-28.76-28.76a1.528 1.528 0 0 1 2.161-2.161l28.76 28.76a1.528 1.528 0 0 1-1.08 2.609z" class="prefix__cls-4" data-name="Path 177" transform="translate(-83.99 79.474)"/>
                            <path id="prefix__Path_178" d="M85.518 180.946a1.528 1.528 0 0 1-1.081-2.609l28.76-28.76a1.528 1.528 0 0 1 2.161 2.161L86.6 180.5a1.523 1.523 0 0 1-1.082.446z" class="prefix__cls-4" data-name="Path 178" transform="translate(-83.99 79.516)"/>
                            <path id="prefix__Path_179" d="M114.278 196.969a1.524 1.524 0 0 1-1.081-.448l-28.76-28.76A1.529 1.529 0 1 1 86.6 165.6l28.76 28.76a1.529 1.529 0 0 1-1.08 2.611z" class="prefix__cls-4" data-name="Path 179" transform="translate(-83.99 91.967)"/>
                            <path id="prefix__Path_180" d="M85.518 197.021a1.528 1.528 0 0 1-1.081-2.609l28.76-28.76a1.528 1.528 0 0 1 2.161 2.161L86.6 196.573a1.524 1.524 0 0 1-1.082.448z" class="prefix__cls-4" data-name="Path 180" transform="translate(-83.99 92.009)"/>
                            <path id="prefix__Path_181" d="M114.278 213.043a1.523 1.523 0 0 1-1.081-.448l-28.76-28.76a1.528 1.528 0 0 1 2.161-2.161l28.76 28.758a1.529 1.529 0 0 1-1.08 2.611z" class="prefix__cls-4" data-name="Path 181" transform="translate(-83.99 104.461)"/>
                            <path id="prefix__Path_182" d="M85.518 213.1a1.529 1.529 0 0 1-1.081-2.611l28.76-28.76a1.529 1.529 0 0 1 2.161 2.163L86.6 212.65a1.524 1.524 0 0 1-1.082.45z" class="prefix__cls-4" data-name="Path 182" transform="translate(-83.99 104.502)"/>
                            <path id="prefix__Path_183" d="M114.278 229.118a1.523 1.523 0 0 1-1.081-.448l-28.76-28.76a1.528 1.528 0 0 1 2.161-2.161l28.76 28.76a1.528 1.528 0 0 1-1.08 2.609z" class="prefix__cls-4" data-name="Path 183" transform="translate(-83.99 116.954)"/>
                            <path id="prefix__Path_184" d="M85.518 229.172a1.528 1.528 0 0 1-1.081-2.609L113.2 197.8a1.528 1.528 0 0 1 2.161 2.161L86.6 228.724a1.523 1.523 0 0 1-1.082.448z" class="prefix__cls-4" data-name="Path 184" transform="translate(-83.99 116.996)"/>
                            <path id="prefix__Path_185" d="M114.278 245.193a1.529 1.529 0 0 1-1.081-.446l-28.76-28.76a1.529 1.529 0 0 1 2.161-2.163l28.76 28.76a1.527 1.527 0 0 1-1.08 2.609z" class="prefix__cls-4" data-name="Path 185" transform="translate(-83.99 129.447)"/>
                            <path id="prefix__Path_186" d="M85.518 245.247a1.528 1.528 0 0 1-1.081-2.609l28.76-28.76a1.529 1.529 0 1 1 2.161 2.163L86.6 244.8a1.523 1.523 0 0 1-1.082.447z" class="prefix__cls-4" data-name="Path 186" transform="translate(-83.99 129.489)"/>
                            <path id="prefix__Path_187" d="M114.278 261.269a1.524 1.524 0 0 1-1.081-.448l-28.76-28.76A1.528 1.528 0 0 1 86.6 229.9l28.76 28.758a1.529 1.529 0 0 1-1.08 2.611z" class="prefix__cls-4" data-name="Path 187" transform="translate(-83.99 141.941)"/>
                            <path id="prefix__Path_188" d="M85.518 261.324a1.529 1.529 0 0 1-1.081-2.611l28.76-28.76a1.529 1.529 0 1 1 2.161 2.163L86.6 260.876a1.523 1.523 0 0 1-1.082.448z" class="prefix__cls-4" data-name="Path 188" transform="translate(-83.99 141.982)"/>
                        </g>
                        <path id="prefix__Path_189" d="M125.957 40.473H81.624v62.805H144.3V78.071zM93.6 78.071V53.466h23.507l12 24.605z" class="prefix__cls-4" data-name="Path 189" transform="translate(7.299 16.697)"/>
                        <path id="prefix__Rectangle_99" d="M0 0H49.43V37.518H0z" class="prefix__cls-4" data-name="Rectangle 99" transform="translate(0 88.572)"/>
                        <path id="prefix__Path_190" d="M50.384 54.1a8.377 8.377 0 1 1-8.376-8.376 8.376 8.376 0 0 1 8.376 8.376z" class="prefix__cls-4" data-name="Path 190" transform="translate(-30.001 20.778)"/>
                        <circle id="prefix__Ellipse_5" cx="8.376" cy="8.376" r="8.376" class="prefix__cls-4" data-name="Ellipse 5" transform="translate(86.279)"/>
                        <circle id="prefix__Ellipse_6" cx="8.376" cy="8.376" r="8.376" class="prefix__cls-4" data-name="Ellipse 6" transform="translate(430.155 77.919)"/>
                        <path id="prefix__Rectangle_100" d="M0 0H4.586V22.183H0z" class="prefix__cls-4" data-name="Rectangle 100" transform="translate(9.714 72.584)"/>
                        <path id="prefix__Rectangle_101" d="M0 0H104.659V3.057H0z" class="prefix__cls-4" data-name="Rectangle 101" transform="rotate(-37.839 109.653 19.542)"/>
                        <path id="prefix__Rectangle_102" d="M0 0H3.058V350.337H0z" class="prefix__cls-4" data-name="Rectangle 102" transform="rotate(-77.141 53.345 -54.203)"/>
                        <path id="prefix__Rectangle_103" d="M0 0H4.586V14.778H0z" class="prefix__cls-4" data-name="Rectangle 103" transform="translate(93.127 8.377)"/>
                        <path id="prefix__Path_191" d="M259.992 115.163a1.175 1.175 0 0 1-.86-.373l-6.073-6.519a1.18 1.18 0 0 1-.316-.8V76.128a1.175 1.175 0 0 1 1.176-1.175h12.143a1.175 1.175 0 0 1 1.176 1.175v31.342a1.18 1.18 0 0 1-.316.8l-6.071 6.519a1.178 1.178 0 0 1-.859.374zm-4.9-8.157l4.9 5.259 4.9-5.259V77.3h-9.794zm10.969.464z" class="prefix__cls-4" data-name="Path 191" transform="translate(140.289 43.494)"/>
                        <path id="prefix__Rectangle_104" d="M0 0H50.734V40.101H0z" class="prefix__cls-4" data-name="Rectangle 104" transform="translate(374.914 165.067)"/>
                        <path id="prefix__Path_192" d="M257.336 107.366a1.174 1.174 0 0 1-1.175-1.175v-8.76a1.175 1.175 0 1 1 2.349 0v8.76a1.175 1.175 0 0 1-1.174 1.175z" class="prefix__cls-4" data-name="Path 192" transform="translate(142.945 60.051)"/>
                        <path id="prefix__Path_193" d="M67 89.668v7.21h6.667v21.6H67v7.21h23.346v-36.02z" class="prefix__cls-4" data-name="Path 193" transform="translate(-4.066 54.931)"/>
                        <path id="prefix__Rectangle_105" d="M0 0H41.821V3.057H0z" class="prefix__cls-4" data-name="Rectangle 105" transform="rotate(-40.069 231.554 -14.18)"/>
                        <path id="prefix__Rectangle_106" d="M0 0H3.058V237.049H0z" class="prefix__cls-4" data-name="Rectangle 106" transform="translate(65.227 174.919)"/>
                    </g>
                </g>
                <path id="prefix__Rectangle_107" d="M0 0H17.454V162.638H0z" class="prefix__cls-4" data-name="Rectangle 107" transform="translate(599.481 298.914)"/>
                <g id="prefix__Group_24" data-name="Group 24" transform="translate(616.935 162.368)">
                    <path id="prefix__Rectangle_108" d="M0 0H133.678V273.818H0z" class="prefix__cls-4" data-name="Rectangle 108" transform="translate(38.121 25.341)"/>
                    <path id="prefix__Path_194" d="M530.833 105.346h-147.9l7.109 15.248h133.682z" class="prefix__cls-4" data-name="Path 194" transform="translate(-351.924 -95.253)"/>
                    <path id="prefix__Rectangle_109" d="M0 0H147.896V10.093H0z" class="prefix__cls-4" data-name="Rectangle 109" transform="translate(31.013)"/>
                    <path id="prefix__Rectangle_110" d="M0 0H15.625V265.856H0z" class="prefix__cls-4" data-name="Rectangle 110" transform="translate(47.711 33.302)"/>
                    <path id="prefix__Rectangle_111" d="M0 0H15.625V265.856H0z" class="prefix__cls-4" data-name="Rectangle 111" transform="translate(109.321 33.328)"/>
                    <path id="prefix__Rectangle_112" d="M0 0H15.625V265.856H0z" class="prefix__cls-4" data-name="Rectangle 112" transform="translate(131.832 33.328)"/>
                    <path id="prefix__Rectangle_113" d="M0 0H10.521V265.856H0z" class="prefix__cls-4" data-name="Rectangle 113" transform="translate(154.343 33.328)"/>
                    <path id="prefix__Rectangle_114" d="M0 0H26.103V31.249H0z" class="prefix__cls-4" data-name="Rectangle 114" transform="translate(69.612 33.355)"/>
                    <path id="prefix__Rectangle_115" d="M0 0H26.103V31.25H0z" class="prefix__cls-4" data-name="Rectangle 115" transform="translate(69.612 72.447)"/>
                    <path id="prefix__Rectangle_116" d="M0 0H26.103V31.25H0z" class="prefix__cls-4" data-name="Rectangle 116" transform="translate(69.612 111.539)"/>
                    <path id="prefix__Rectangle_117" d="M0 0H26.103V31.25H0z" class="prefix__cls-4" data-name="Rectangle 117" transform="translate(69.612 150.632)"/>
                    <path id="prefix__Rectangle_118" d="M0 0H26.103V31.249H0z" class="prefix__cls-4" data-name="Rectangle 118" transform="translate(69.612 189.724)"/>
                    <path id="prefix__Rectangle_119" d="M0 0H26.103V31.25H0z" class="prefix__cls-4" data-name="Rectangle 119" transform="translate(69.612 228.816)"/>
                    <path id="prefix__Rectangle_120" d="M0 0H26.103V31.25H0z" class="prefix__cls-4" data-name="Rectangle 120" transform="translate(69.612 267.909)"/>
                    <path id="prefix__Rectangle_121" d="M0 0H38.357V127.094H0z" class="prefix__cls-4" data-name="Rectangle 121" transform="translate(0 172.09)"/>
                    <path id="prefix__Rectangle_122" d="M0 0H34.655V127.094H0z" class="prefix__cls-4" data-name="Rectangle 122" transform="translate(171.8 172.09)"/>
                </g>
                <g id="prefix__Group_25" data-name="Group 25" transform="translate(31.687 173.724)">
                    <path id="prefix__Rectangle_123" d="M0 0H133.678V273.818H0z" class="prefix__cls-4" data-name="Rectangle 123" transform="translate(38.121 25.341)"/>
                    <path id="prefix__Path_195" d="M201.52 111.736H53.624l7.109 15.248h133.678z" class="prefix__cls-4" data-name="Path 195" transform="translate(-22.612 -101.643)"/>
                    <path id="prefix__Rectangle_124" d="M0 0H147.896V10.093H0z" class="prefix__cls-4" data-name="Rectangle 124" transform="translate(31.013)"/>
                    <path id="prefix__Rectangle_125" d="M0 0H15.625V265.856H0z" class="prefix__cls-4" data-name="Rectangle 125" transform="translate(47.711 33.302)"/>
                    <path id="prefix__Rectangle_126" d="M0 0H15.625V265.856H0z" class="prefix__cls-4" data-name="Rectangle 126" transform="translate(109.321 33.328)"/>
                    <path id="prefix__Rectangle_127" d="M0 0H15.625V265.856H0z" class="prefix__cls-4" data-name="Rectangle 127" transform="translate(131.832 33.328)"/>
                    <path id="prefix__Rectangle_128" d="M0 0H10.521V265.856H0z" class="prefix__cls-4" data-name="Rectangle 128" transform="translate(154.343 33.328)"/>
                    <path id="prefix__Rectangle_129" d="M0 0H26.103V31.25H0z" class="prefix__cls-4" data-name="Rectangle 129" transform="translate(69.612 33.355)"/>
                    <path id="prefix__Rectangle_130" d="M0 0H26.103V31.25H0z" class="prefix__cls-4" data-name="Rectangle 130" transform="translate(69.612 72.447)"/>
                    <path id="prefix__Rectangle_131" d="M0 0H26.103V31.25H0z" class="prefix__cls-4" data-name="Rectangle 131" transform="translate(69.612 111.539)"/>
                    <path id="prefix__Rectangle_132" d="M0 0H26.103V31.249H0z" class="prefix__cls-4" data-name="Rectangle 132" transform="translate(69.612 150.632)"/>
                    <path id="prefix__Rectangle_133" d="M0 0H26.103V31.25H0z" class="prefix__cls-4" data-name="Rectangle 133" transform="translate(69.612 189.724)"/>
                    <path id="prefix__Rectangle_134" d="M0 0H26.103V31.25H0z" class="prefix__cls-4" data-name="Rectangle 134" transform="translate(69.612 228.817)"/>
                    <path id="prefix__Rectangle_135" d="M0 0H26.103V31.25H0z" class="prefix__cls-4" data-name="Rectangle 135" transform="translate(69.612 267.909)"/>
                    <path id="prefix__Rectangle_136" d="M0 0H38.357V127.094H0z" class="prefix__cls-4" data-name="Rectangle 136" transform="translate(0 172.09)"/>
                    <path id="prefix__Rectangle_137" d="M0 0H34.655V127.094H0z" class="prefix__cls-4" data-name="Rectangle 137" transform="translate(171.8 172.09)"/>
                </g>
            </g>
        </g>
    </g>
</svg>
