<svg xmlns="http://www.w3.org/2000/svg" width="548.925" height="481.865" viewBox="0 0 548.925 481.865">
    <defs>
        <style>
            .prefix__cls-2{fill:#fff; opacity:0.5;}.prefix__cls-3{fill:#ff8e39}.prefix__cls-22,.prefix__cls-4{fill:#fff}.prefix__cls-4{opacity:.25}.prefix__cls-5{fill:#fcb6ac}.prefix__cls-6{fill:#47290e}.prefix__cls-7{fill:#e28b33}.prefix__cls-8{fill:#18213b}.prefix__cls-9{fill:#351d0a}.prefix__cls-12{fill:#ffb9b0}.prefix__cls-13{fill:#153351}.prefix__cls-15{fill:#ffb41d}.prefix__cls-16{fill:#ffbf4d}.prefix__cls-18{fill:#ff6a1f}.prefix__cls-22{opacity:.36}.prefix__cls-25{fill:#ffbe9d}.prefix__cls-27{fill:#001118}.prefix__cls-34{fill:#cc6824}.prefix__cls-29{fill:#f2a181}.prefix__cls-30{fill:#7c4e50}.prefix__cls-37{opacity:.08}.prefix__cls-38{fill:#3a3a3a}.prefix__cls-39{fill:#b96f24}.prefix__cls-40{fill:#4578cf}.prefix__cls-41{fill:#6fb353}.prefix__cls-43{fill:#ffd694}.prefix__cls-45{fill:#feb37c}.prefix__cls-46{fill:#4c4051}.prefix__cls-54{fill:#ffc969}.prefix__cls-55{fill:#ff8f1f}
        </style>
    </defs>
    <g id="prefix__Group_1927" data-name="Group 1927" transform="translate(-23.907 -53)">
        <g id="prefix__Group_1876" data-name="Group 1876" transform="translate(35.356 53)">
            <g id="prefix__Group_1874" data-name="Group 1874" transform="translate(0 210.301)" style="opacity:.5">
                <path id="prefix__Path_3092" d="M215.014 264.456v-44.221l-29.993 32.78v54.507H165.7V229.4h-4.913l-13.991-13.073-14.068 13.073H127.9v105.42H56.8v57.418h205.066V264.456zm-54.229 28.029h-27.976v-2.858h27.976zm0-5.7h-27.976v-2.857h27.976zm0-5.7h-27.976v-2.851h27.976zm0-5.7h-27.976v-2.852h27.976zm0-5.7h-27.976v-2.858h27.976zm0-5.7h-27.976v-2.857h27.976zm0-5.7h-27.976v-2.852h27.976zm0-5.7h-27.976v-2.851h27.976zm0-5.7h-27.976v-2.852h27.976zm0-5.7h-27.976v-2.858h27.976zm0-5.7h-27.976v-2.852h27.976zm50.424 138.885h-2.9V234.034l2.9-3.182z" class="prefix__cls-2" data-name="Path 3092" transform="translate(-29.189 -216.332)"/>
                <path id="prefix__Path_3093" d="M379.5 264.456v-44.221l-29.993 32.78v54.507h-19.32V229.4h-4.913l-13.991-13.073-14.066 13.073h-4.832v105.42H221.29v57.418h205.065V264.456zm-54.229 28.029H297.3v-2.858h27.976zm0-5.7H297.3v-2.857h27.976zm0-5.7H297.3v-2.851h27.976zm0-5.7H297.3v-2.852h27.976zm0-5.7H297.3v-2.858h27.976zm0-5.7H297.3v-2.857h27.976zm0-5.7H297.3v-2.852h27.976zm0-5.7H297.3v-2.851h27.976zm0-5.7H297.3v-2.852h27.976zm0-5.7H297.3v-2.858h27.976zm0-5.7H297.3v-2.852h27.976zM375.7 374.37h-2.9V234.034l2.9-3.182z" class="prefix__cls-2" data-name="Path 3093" transform="translate(18.113 -216.332)"/>
                <path id="prefix__Path_3094" d="M345.728 336.271v-99.946h-4.505v-10.113h-34.839v10.113h-4.477v125.648h-32.7v-56.9H221.6v74.669h-23V245.988h-46.9v102.76h-5.5v-61.17h-8.5l-23.651-12.491v12.491h-5.169v75.547H97.4V260.818H85.782v-35.891h-1.59v35.891H72.578v129.174h302.494v-53.721zM94.6 326.556H75.435v-2.224H94.6zm0-5.145H75.435v-2.222H94.6zm0-5.151H75.435v-2.224H94.6zm0-5.145H75.435v-2.222H94.6zm0-5.144H75.435v-2.224H94.6zm0-5.153H75.435v-2.224H94.6zm0-5.145H75.435v-2.223H94.6zm0-5.144H75.435v-2.224H94.6zm0-5.153H75.435v-2.222H94.6zm0-5.144H75.435v-2.224H94.6zm0-5.145H75.435v-2.224H94.6zm0-5.152H75.435v-2.224H94.6zm0-5.145H75.435v-2.224H94.6zm67.2 30.638h-5.71v-5.7h5.71zm0-9.5h-5.71v-5.705h5.71zm0-9.513h-5.71v-5.7h5.71zm0-9.5h-5.71V261.2h5.71zm0-9.513h-5.71v-5.706h5.71zm10.836 38.035h-5.7v-5.7h5.7zm0-9.5h-5.7v-5.705h5.7zm0-9.513h-5.7v-5.7h5.7zm0-9.5h-5.7V261.2h5.7zm0-9.513h-5.7v-5.706h5.7zm10.843 38.035h-5.709v-5.7h5.705zm0-9.5h-5.709v-5.705h5.705zm0-9.513h-5.709v-5.7h5.705zm0-9.5h-5.709V261.2h5.705zm0-9.513h-5.709v-5.706h5.705zm10.837 38.035h-5.7v-5.7h5.7zm0-9.5h-5.7v-5.705h5.7zm0-9.513h-5.7v-5.7h5.7zm0-9.5h-5.7V261.2h5.7zm155.905 116.4h-5.929v-5.929h5.929zm0-11.873h-5.929v-5.928h5.929zm0-11.871h-5.929v-5.929h5.929zm0-11.873h-5.929v-5.929h5.929zm11 35.617h-5.929v-5.929h5.929zm0-11.873h-5.929v-5.928h5.929zm0-11.871h-5.929v-5.929h5.929zm0-11.873h-5.929v-5.929h5.929zm11 35.617h-5.937v-5.929h5.937zm0-11.873h-5.937v-5.928h5.937zm0-11.871h-5.937v-5.929h5.937zm0-11.873h-5.937v-5.929h5.937z" class="prefix__cls-2" data-name="Path 3094" transform="translate(-24.652 -213.86)"/>
                <path id="prefix__Path_3095" d="M453.784 325.651v-89.326h-4.5v-10.113H414.44v10.113h-4.477v125.648h-32.7v-56.9h-47.608v74.669H306.65V245.988h-46.9v102.76h-5.506v-61.17h-8.482l-23.653-12.491v12.491h-5.173v75.547h-11.484V260.818h-11.614v-35.891h-1.59v35.891h-11.614v129.174h302.494v-64.341zm-251.132.905h-19.161v-2.224h19.162zm0-5.145h-19.161v-2.222h19.162zm0-5.151h-19.161v-2.224h19.162zm0-5.145h-19.161v-2.222h19.162zm0-5.144h-19.161v-2.224h19.162zm0-5.153h-19.161v-2.224h19.162zm0-5.145h-19.161v-2.223h19.162zm0-5.144h-19.161v-2.224h19.162zm0-5.153h-19.161v-2.222h19.162zm0-5.144h-19.161v-2.224h19.162zm0-5.145h-19.161v-2.224h19.162zm0-5.152h-19.161v-2.224h19.162zm0-5.145h-19.161v-2.224h19.162zm67.2 30.638h-5.707v-5.7h5.707zm0-9.5h-5.707v-5.705h5.707zm0-9.513h-5.707v-5.7h5.707zm0-9.5h-5.707V261.2h5.707zm0-9.513h-5.707v-5.706h5.707zm10.836 38.035h-5.7v-5.7h5.7zm0-9.5h-5.7v-5.705h5.7zm0-9.513h-5.7v-5.7h5.7zm0-9.5h-5.7V261.2h5.7zm0-9.513h-5.7v-5.706h5.7zm10.844 38.035h-5.706v-5.7h5.706zm0-9.5h-5.706v-5.705h5.706zm0-9.513h-5.706v-5.7h5.706zm0-9.5h-5.706V261.2h5.706zm0-9.513h-5.706v-5.706h5.706zm10.836 38.035h-5.7v-5.7h5.7zm0-9.5h-5.7v-5.705h5.7zm0-9.513h-5.7v-5.7h5.7zm0-9.5h-5.7V261.2h5.7zm158.914 100.627h-5.119v-5.119h5.119zm0-10.25h-5.119V352.2h5.119zm0-10.25h-5.119v-5.119h5.119zm0-10.25h-5.119V331.7h5.119zm9.5 30.751h-5.119v-5.12h5.119zm0-10.25h-5.119v-5.12h5.119zm0-10.25h-5.119v-5.12h5.119zm0-10.25h-5.119v-5.12h5.119zm9.5 30.751h-5.126v-5.121h5.126zm0-10.25h-5.126V352.2h5.126zm0-10.25h-5.126v-5.121h5.126zm0-10.25h-5.126V331.7h5.126z" class="prefix__cls-2" data-name="Path 3095" transform="translate(6.421 -213.86)"/>
                <path id="prefix__Rectangle_234" d="M0 0H20.315V45.267H0z" class="prefix__cls-2" data-name="Rectangle 234" transform="translate(489.549 130.865)"/>
            </g>
            <g id="prefix__Group_1875" data-name="Group 1875" transform="translate(58.691)">
                <path id="prefix__Path_3098" d="M350.331 211.647h99.727c15.038 0 15.226-17.1 1.877-20.539a27.821 27.821 0 0 0-23.478 4.554s-3.622-42.028-37.951-37.094c-27.063 3.891-25.491 30.908-25.491 30.908s-5.57-11.119-20.17-6.912c-15.231 4.39-13.58 29.083 5.486 29.083z" class="prefix__cls-4" data-name="Path 3098" transform="translate(-7.998 -22.758)"/>
                <path id="prefix__Path_3099" d="M266.6 94.4h-77.191c-11.64 0-11.785-13.236-1.454-15.9a21.535 21.535 0 0 1 18.173 3.525s2.8-32.53 29.375-28.712c20.947 3.012 19.731 23.923 19.731 23.923s4.312-8.606 15.612-5.35C282.635 75.283 281.357 94.4 266.6 94.4z" class="prefix__cls-4" data-name="Path 3099" transform="translate(-52.328 -53)"/>
                <path id="prefix__Path_3100" d="M167.106 188.844h-77.19c-11.64 0-11.785-13.235-1.454-15.9a21.531 21.531 0 0 1 18.171 3.525s2.8-32.53 29.375-28.712c20.949 3.012 19.731 23.923 19.731 23.923s4.312-8.606 15.612-5.35c11.79 3.402 10.513 22.514-4.245 22.514z" class="prefix__cls-4" data-name="Path 3100" transform="translate(-80.939 -25.839)"/>
            </g>
        </g>
        <g id="prefix__Group_1887" data-name="Group 1887" transform="translate(77.851 252.046)">
            <g id="prefix__Group_1886" data-name="Group 1886">
                <g id="prefix__Group_1883" data-name="Group 1883">
                    <g id="prefix__Group_1882" data-name="Group 1882">
                        <g id="prefix__Group_1877" data-name="Group 1877" transform="translate(40.754 233.694)">
                            <path id="prefix__Path_3101" d="M108.733 390.377s-1.792 5.206-2.309 6.513-4.38.106-4.6-.739 1.517-7.06 1.517-7.06" class="prefix__cls-5" data-name="Path 3101" transform="translate(-99.498 -389.091)"/>
                            <path id="prefix__Path_3102" d="M101.193 395.044c-.469 1.385-1.339 3.358-1.155 4.055s5.086 2.777 6.184 3.446a13.76 13.76 0 0 0 3.543 1.345c3.259.583 5.758.017 6.007-.489 1.038-2.112-5.419-3.518-8.171-9.479a1.32 1.32 0 0 0-1 .449 2.268 2.268 0 0 1-2.757.557 3.642 3.642 0 0 1-1.356-1.554 2.507 2.507 0 0 0-1.295 1.67z" class="prefix__cls-6" data-name="Path 3102" transform="translate(-100.012 -387.859)"/>
                        </g>
                        <g id="prefix__Group_1878" data-name="Group 1878" transform="translate(87.137 237.127)">
                            <path id="prefix__Path_3103" d="M141.911 391.757s-.126 5.5-.221 6.905-4.141 1.432-4.611.7-.7-7.186-.7-7.186" class="prefix__cls-5" data-name="Path 3103" transform="translate(-135.938 -391.757)"/>
                            <path id="prefix__Path_3104" d="M136.127 398.7c-.027 1.463-.255 3.606.131 4.214s5.688 1.1 6.939 1.4a13.837 13.837 0 0 0 3.784.206c3.282-.435 5.491-1.736 5.574-2.292.346-2.328-6.232-1.706-10.664-6.547a1.324 1.324 0 0 0-.814.73 2.266 2.266 0 0 1-2.457 1.367 3.623 3.623 0 0 1-1.763-1.067 2.5 2.5 0 0 0-.73 1.989z" class="prefix__cls-6" data-name="Path 3104" transform="translate(-136.036 -390.629)"/>
                        </g>
                        <path id="prefix__Path_3105" d="M150.259 364.094c.905-11.83-3.187-48.916-3.585-52.107s-2.643-3.6-4.357-4.122c-8.556-2.574-18.7 10.7-16 22.614.037.192.09.4.144.6 1.607 6.9 10.683 29.08 10.047 35.492-4.97 13.419.67 41.223 2.37 52.917.209.006.416 0 .608-.01a34.735 34.735 0 0 0 6.682-.735s3.186-42.821 4.091-54.649z" class="prefix__cls-7" data-name="Path 3105" transform="translate(-51.821 -178.848)"/>
                        <path id="prefix__Path_3106" d="M138.739 361.9c.309-4.369-4.106-39.094-5.2-38.622a1.9 1.9 0 0 0-.787.864c-.914 1.569-1.79 3.165-2.558 4.812a43.693 43.693 0 0 0-2.027 5.24c3.2 9.447 8.158 23.06 7.682 27.855-2.946 7.955-2.163 20.964-.684 32.677-.571-15.41 3.327-29.339 3.574-32.826z" class="prefix__cls-7" data-name="Path 3106" transform="translate(-51.161 -174.324)"/>
                        <path id="prefix__Path_3107" d="M152.1 302.023a40.607 40.607 0 0 1-9.724.635c-8.221-.216-18.648-4.378-18.648-4.378-10.489 11.351-4.723 24.641-5.086 29.013s-1.213 25.14-2.152 36.708c-10.634 10.415-11.023 38.108-14.135 52.667l-.113.5a36.141 36.141 0 0 0 7.055 1.967l.412-1.165c3.167-9.578 17.8-37.045 21.439-47.779 3.3-9.737 11.837-39.3 11.995-39.268l10.88 1.862a209.276 209.276 0 0 0-1.923-30.762z" class="prefix__cls-7" data-name="Path 3107" transform="translate(-58.618 -181.511)"/>
                        <path id="prefix__Path_3108" d="M166.273 254.693s-1.429 6.129-3.412 12.708c-1.906 6.309-4.313 13.056-6.451 15.168-1.854 1.841-3.489 2.086-4.867 1.545l-.116-.039a7.8 7.8 0 0 1-3.155-3.116 18.36 18.36 0 0 1-1.712-3.618l3.953-6.863 1.622-2.82 1.532-2.665 7.262-12.592z" class="prefix__cls-8" data-name="Path 3108" transform="translate(-45.872 -194.705)"/>
                        <path id="prefix__Path_3109" d="M162.3 277.054a.4.4 0 0 0-.026.09c-.167.567-1.365 3.979-6.283 6.541l-.116-.039c-.966-.309-8.176-2.73-12.979-6.09a.013.013 0 0 0-.013-.013 17.851 17.851 0 0 1-1.506-1.159L131.1 253.891s7.339 1.12 23.859 16.159q3.399 3.071 7.341 7.004z" class="prefix__cls-8" data-name="Path 3109" transform="translate(-50.318 -194.276)"/>
                        <path id="prefix__Path_3110" d="M164.71 264.589c-1.906 6.309-4.313 13.056-6.451 15.167-1.854 1.841-3.489 2.086-4.867 1.545l-.116-.039c-.966-.309-8.176-2.73-12.979-6.09a.013.013 0 0 0-.013-.013c-.09-.386-.155-.657-.155-.657l.206-1.816a68.01 68.01 0 0 0 9.786 5.459 10.47 10.47 0 0 0 5.022 1.133c1.79-.309 3.348-2.343 4.532-4.519a34.787 34.787 0 0 0 2.343-5.678l-8.034-4.236 1.532-2.665 7.931.85s.529.645 1.263 1.559z" class="prefix__cls-9" data-name="Path 3110" transform="translate(-47.722 -191.892)"/>
                        <path id="prefix__Path_3111" d="M226.384 283.016l-9.322 18.374-77.5-39.31-7.21-3.657-63.992-32.459 9.322-18.374 56.035 28.417 9.914 5.034z" data-name="Path 3111" transform="translate(-68.36 -207.591)" style="fill:#7d7c7c"/>
                        <path id="prefix__Path_3112" d="M130.01 234.7l-3.167 19.944-.9 1.094-7.21-3.657a46.543 46.543 0 0 1-1.944-7.507s-.94-.309-1.043-.94a1.535 1.535 0 0 1 .644-1.468 19.109 19.109 0 0 1 3.708-12.5z" data-name="Path 3112" transform="translate(-54.739 -201.244)" style="fill:#d89671"/>
                        <g id="prefix__Group_1879" data-name="Group 1879" transform="translate(64.393 26.296)">
                            <path id="prefix__Path_3113" d="M123.931 256.8l5.152 7.209 1.832 1.682 1.221-1.221 3.744-3.73-.265-4.447a8.014 8.014 0 0 1-1.241-2.444c-.054-.176-.108-.339-.162-.5-.149-.488-.272-.909-.285-1.017a12.975 12.975 0 0 1-10-1.815 14.888 14.888 0 0 1 .412 3.313 19.821 19.821 0 0 1-.408 2.97z" class="prefix__cls-12" data-name="Path 3113" transform="translate(-116.776 -221.542)"/>
                            <path id="prefix__Path_3114" d="M139.23 234.815a15.554 15.554 0 0 1 1.055 6.4 6.821 6.821 0 0 1-2.544 5.632 2.839 2.839 0 0 1-3.183.332 3.155 3.155 0 0 1-.64-.65 11.027 11.027 0 0 1-2.086-9.066" class="prefix__cls-13" data-name="Path 3114" transform="translate(-114.571 -226.057)"/>
                            <path id="prefix__Path_3115" d="M133.44 258.972c.464-.05 1.6-.091 3.716-.445 2.247-.366 3.565-2.488 3.859-4.846.232-1.862.612-11.49.612-11.49 1.375-11.607-14.891-9.976-17.489-8.583-2.616 1.4-3.233 5.068-3.663 8.616a16.234 16.234 0 0 0 .852 5.445c.887 3.112 2.172 6.339 2.548 7.481a18.846 18.846 0 0 0 9.565 3.822z" class="prefix__cls-12" data-name="Path 3115" transform="translate(-117.777 -226.685)"/>
                            <path id="prefix__Path_3116" d="M138.331 238.348c3.446.14 4.084 1.436 3.869-3.724-.126-3.013-1.817-4.078-6.251-5.391-1.827-.542-1.9-2.108-4.141-.545a11.962 11.962 0 0 1-4.535 2.052c-6.04 1.158-8.337 5.915-8.892 11.345 0 0-.573 12.332 7.282 15.578a53.633 53.633 0 0 0 .77-5.834s-3.064-2.242-2.955-4.382a1.875 1.875 0 0 1 2.233-1.634c.971.321 1.284 1.794 1.284 1.794a21.766 21.766 0 0 0 1.061-4.15 3.445 3.445 0 0 0-.51-2.176c.229-.225 3.091-3.244 10.785-2.933z" class="prefix__cls-13" data-name="Path 3116" transform="translate(-118.372 -228.013)"/>
                        </g>
                        <path id="prefix__Path_3117" d="M150.21 327.213l-.361.3a94.257 94.257 0 0 1-13.7 1.468 105.617 105.617 0 0 1-16.932-.721c-1.957-.232-2.871-.322-4.919-.708 1.043-6.592-.785-41.344-.682-41.485.129-.18-.116-6.18 0-12.142a57.207 57.207 0 0 1 .721-9.515 4.33 4.33 0 0 1 .914-2.215 79.255 79.255 0 0 1 11.511-7.61s10.584 5.511 11.575 0c5.343 2 7.854 8.421 9.09 12.721.541 1.88 1.03 3.837 1.455 5.846v.026c.092 1.222 3.002 40.657 1.328 54.035z" class="prefix__cls-8" data-name="Path 3117" transform="translate(-55.355 -194.078)"/>
                        <path id="prefix__Path_3118" d="M124.934 270.273l-2.226 8.289a5.082 5.082 0 0 0 2.955-.739 9.77 9.77 0 0 0 3.843-5.107l-.87 6.972-5.955 3.138-4.908-3.138z" class="prefix__cls-9" data-name="Path 3118" transform="translate(-54.151 -189.565)"/>
                        <path id="prefix__Path_3119" d="M150.2 326.771l-.361.3-6.5 5.356-6.541-3.528c-.026.322-.052.489-.052.489a124.013 124.013 0 0 1-22.455-2.279l-.657-27.258L122.4 283.6c4.263 1.21 6.474-1.649 7.6-4.468a14.847 14.847 0 0 0 .521-9.1 20.376 20.376 0 0 0-9.619-12.388 7.307 7.307 0 0 1 2.369-1.527c2.421.206 10.111 7.434 11.025 17.928l1.532-.142 3.412-.309 9.631-.888v.026c.09 1.223 3 40.661 1.329 54.039z" class="prefix__cls-7" data-name="Path 3119" transform="translate(-55.342 -193.636)"/>
                        <path id="prefix__Path_3120" d="M114.174 308.051s19.664 3.341 36.324.161c0 0 1.02 3.677-.014 6.26 0 0-21.635 3.017-36.351.436-.001.001-1.049-3.852.041-6.857z" class="prefix__cls-8" data-name="Path 3120" transform="translate(-55.328 -178.701)"/>
                        <g id="prefix__Group_1880" data-name="Group 1880" transform="translate(70.197 115.91)">
                            <path id="prefix__Path_3121" d="M123.406 326.085a1.6 1.6 0 0 1-.109-2.265l18.6-20.493 2.374 2.157-18.6 20.492a1.6 1.6 0 0 1-2.265.109z" data-name="Path 3121" transform="translate(-122.879 -295.97)" style="fill:#955123"/>
                            <path id="prefix__Path_3122" d="M149.533 306.492l-.792-.718a1.2 1.2 0 0 0-1.524-.068l-1.091-.99.015-.012a.819.819 0 0 0 .044-1.25l-4.817-4.373a5.841 5.841 0 0 0-7.985.279.253.253 0 0 0 .167.444c1.315-.042 4.228.167 5.69 2.6l-.932 1.456a.818.818 0 0 0 .139 1.047l2.938 2.668a.817.817 0 0 0 1.056.037l.3-.237 1.616 1.467a1.193 1.193 0 0 0 .162 1.581l.792.718a.287.287 0 0 0 .4-.019l3.834-4.223a.287.287 0 0 0-.012-.407z" class="prefix__cls-8" data-name="Path 3122" transform="translate(-119.883 -297.613)"/>
                        </g>
                        <g id="prefix__Group_1881" data-name="Group 1881" transform="translate(76.598 125.29)">
                            <path id="prefix__Path_3123" d="M131.331 304.9s2.162 2.182 3.581 3.4 3.437 2.294 3.622 4.764c.068.919-1.055 3.179-3.058 4.989-2.982 2.692-4.6 1.428-5.126.738a2.4 2.4 0 0 0 .767-2.746c-.666-1.448-.946-1.3-2.055-2.408-1.667-1.674-.72-4.052-1.191-5.337-.335-.912 3.46-3.4 3.46-3.4z" class="prefix__cls-12" data-name="Path 3123" transform="translate(-127.851 -304.898)"/>
                        </g>
                    </g>
                </g>
                <path id="prefix__Path_3125" d="M116.809 261.03s-15.058 29.425-7.546 38.653S133.6 321.9 133.6 321.9a13.744 13.744 0 0 0 2.14-1.458 12.464 12.464 0 0 0 2.247-2.632s-15.934-20.457-18.358-24.658c0 0 8.072-17.341 9.115-22.549s-5.744-13.839-11.935-9.573z" class="prefix__cls-8" data-name="Path 3125" transform="translate(-57.202 -192.553)"/>
                <path id="prefix__Path_3126" d="M138.288 257.325s3.133 3.95 4.431 15.51l-2.761.4s-1.356-14.041-4.935-17.565z" class="prefix__cls-7" data-name="Path 3126" transform="translate(-49.19 -193.765)"/>
                <g id="prefix__Group_1884" data-name="Group 1884" transform="translate(63.153 24.041)">
                    <path id="prefix__Path_3127" d="M125 240.3s5.3 3.694 17.125.246c.892-.26 4.227-2.318 0-3.721z" class="prefix__cls-15" data-name="Path 3127" transform="translate(-115.224 -223.224)"/>
                    <path id="prefix__Path_3128" d="M144.251 238.638c-.273-3.079-1.9-11.672-11.595-11.878-14.374-.305-15.7 9.005-14.68 16.122a1.019 1.019 0 0 0-.555 1.025.847.847 0 0 0 .824.557 24.7 24.7 0 0 0 3.644-.3c5.44-.511 15.689-1.755 21.868-4.219a.646.646 0 0 0 .55-.219c.766-.717-.056-1.088-.056-1.088z" class="prefix__cls-7" data-name="Path 3128" transform="translate(-117.408 -226.122)"/>
                    <path id="prefix__Path_3129" d="M123.2 228s11.065-1.526 13.25 13.8a25.131 25.131 0 0 0 4.455-1.213s-1.054-11.8-9.913-13.691c-.001.004-4.427-2.005-7.792 1.104z" class="prefix__cls-16" data-name="Path 3129" transform="translate(-115.743 -226.263)"/>
                </g>
                <g id="prefix__Group_1885" data-name="Group 1885" transform="translate(113.718 51.718)">
                    <path id="prefix__Path_3130" d="M160.7 247.894a30.374 30.374 0 0 1-3.3.133c-.272 0-.616.035-.7.294a.661.661 0 0 0 .064.439 1.221 1.221 0 0 0 .632.567 7.643 7.643 0 0 0 2.744 1.058" data-name="Path 3130" transform="translate(-156.68 -247.719)" style="fill:#f4b5c7"/>
                    <path id="prefix__Path_3131" d="M167.242 252.617a4.59 4.59 0 0 1-8.41-3.672c.76-1.739 2.82-1.322 5.141-.308s4.027 2.241 3.269 3.98z" class="prefix__cls-12" data-name="Path 3131" transform="translate(-156.139 -247.758)"/>
                </g>
            </g>
            <path id="prefix__Path_3132" d="M118.26 308.212a19.479 19.479 0 0 0 0 7.741c.543 2.128 1.2 1.533.966 0a21.85 21.85 0 0 1-.108-3.952 26.875 26.875 0 0 1 .382-3.95" class="prefix__cls-18" data-name="Path 3132" transform="translate(-54.127 -178.701)"/>
            <path id="prefix__Path_3133" d="M124.446 308.883a19.5 19.5 0 0 0 0 7.74c.543 2.128 1.2 1.534.966 0a21.844 21.844 0 0 1-.107-3.95 26.912 26.912 0 0 1 .382-3.952" class="prefix__cls-18" data-name="Path 3133" transform="translate(-52.348 -178.509)"/>
            <path id="prefix__Path_3134" d="M139.282 308.212a19.506 19.506 0 0 1 0 7.741c-.545 2.128-1.2 1.533-.966 0a21.852 21.852 0 0 0 .107-3.952 26.88 26.88 0 0 0-.382-3.95" class="prefix__cls-18" data-name="Path 3134" transform="translate(-48.322 -178.701)"/>
        </g>
        <g id="prefix__Group_1888" data-name="Group 1888" transform="translate(160.744 81.356)">
            <path id="prefix__Rectangle_235" d="M0 0H159.659V8.486H0z" data-name="Rectangle 235" transform="translate(0 160.533)" style="fill:#959595"/>
            <path id="prefix__Path_3135" d="M368.206 109.408h-.838L340.63 75.023l-25.957 34.385h-105.72l-55.3 54.762h54.545v54.5l-63.789 15.88v9.492h2.575v-7.479L209.481 221l61.966 15.556v7.482h2.575v-9.489l-63.252-15.88v-54.5h50.365l.14.139.139-.139h1.206l.139.139.14-.139h50.365V479.41h54.942V164.169h50.366l.139.139.14-.139h1.3l55.3-54.762zm-208.3 52.186l48.285-47.813v47.813zm99.167-49.611l-23.243 23.243-23.243-23.243zM210.77 113.8l23.243 23.243-23.243 23.247zm2.338 47.791l22.726-22.727 22.726 22.727zm47.453-1.64l-22.907-22.907 22.907-22.907zm50.882-47.971L288.2 135.226l-23.243-23.243zm-48.306 1.82l23.243 23.243-23.243 23.247zm2.338 47.791l22.725-22.724 22.726 22.727zm47.789-1.3l-23.243-23.243 23.243-23.248zm27.4-81.034l23.447 30.152H317.9zm23.059 32.727l-23.033 23.028-23.03-23.029zm-45.724 310.3l22.695-22.7 22.7 22.7zm45.969 2.575l-23.278 23.27-23.274-23.273zm-46.426-52.064h46.3l-23.152 23.148zm.335-2.575l22.813-22.82 22.818 22.818zm-.212-49.489h46.059l-23.034 23.026zm.09-2.575l22.939-22.941 22.941 22.941zm.032-49.489H363.6l-22.91 22.903zm-.154-2.575l23.062-23.062 23.063 23.062zm.032-49.732h46.059l-23.034 23.025zm.09-2.575l22.935-22.945 22.94 22.94zm-.09-49.611h46.059L340.69 187.2zm.09-2.575l22.939-22.941 22.941 22.941zm-1.916-47.799l23.03 23.029-23.03 23.031zm0 52.186l23.03 23.029-23.03 23.031zm0 52.187l23.03 23.029-23.03 23.031zm0 52.185l23.03 23.029-23.03 23.031zm0 52.186l23.03 23.029-23.03 23.031zm0 52.186l23.03 23.029-23.03 23.029zm0 52.185l23.03 23.03-23.03 23.031zm49.792 49.915h-49.792v-.214l24.85-24.851 24.941 24.94zm0-3.766l-23.121-23.12 23.121-23.12zm0-52.185l-23.121-23.12 23.121-23.12zm0-52.186l-23.121-23.12 23.121-23.121zm0-52.186l-23.121-23.12 23.121-23.12zm0-52.185l-23.121-23.12 23.121-23.121zm0-52.187l-23.121-23.12 23.121-23.115zm0-52.186l-23.121-23.12 23.121-23.12zm50.882-47.97l-23.243 23.247-23.243-23.243zm-48.307 1.821l23.243 23.243-23.243 23.247zm2.337 47.791l22.727-22.727 22.73 22.73zm47.791-1.3l-23.243-23.243 23.243-23.248zm2.575-48.307h48.285l-48.285 47.811z" data-name="Path 3135" transform="translate(-129.385 -75.023)" style="fill:#fcfcfc;opacity:.48"/>
            <path id="prefix__Path_3136" d="M251.125 140.008V177h37v-36.992z" data-name="Path 3136" transform="translate(-98.695 -56.335)" style="opacity:.29;fill:#fff"/>
            <path id="prefix__Rectangle_236" d="M0 0H9.818V31.706H0z" class="prefix__cls-22" data-name="Rectangle 236" transform="translate(154.844 86.238)"/>
            <path id="prefix__Rectangle_237" d="M0 0H9.818V31.706H0z" class="prefix__cls-22" data-name="Rectangle 237" transform="translate(166.774 86.238)"/>
        </g>
        <g id="prefix__Group_1900" data-name="Group 1900" transform="translate(218.687 271.986)">
            <g id="prefix__Group_1898" data-name="Group 1898">
                <g id="prefix__Group_1889" data-name="Group 1889" transform="translate(40.889 65.046)">
                    <path id="prefix__Path_3137" d="M231.475 300.948s2.264 2.793 3.663 3.512c.534.274 3.162 1.436 3.491 1.979a11.783 11.783 0 0 1 1.118 2.458c.1.533.326 2.294-.082 2.48s.361 1.181-.041 1.653a1.3 1.3 0 0 1-1.581.358c-.48-.288-.988.359-1.389.237a5.733 5.733 0 0 0-1.022-.376c-.341-.026-.444.438-1.181.184-.675-.233-.63-.436-.961-.577s-.462.139-.991-.3a8.493 8.493 0 0 1-1.499-2.028 6.451 6.451 0 0 1-.832-2.982c-.089-1.311-2.225-2.721-3.855-4.286z" class="prefix__cls-12" data-name="Path 3137" transform="translate(-204.661 -265.729)"/>
                    <path id="prefix__Path_3138" d="M220.357 285.631a68.621 68.621 0 0 1 4.055 6.022c1.434 2.549 11.394 16.4 11.394 16.4l-2.7 3.694s-14.8-11.786-17.507-17.481c-1.03-2.167.444-12.478.444-12.478z" class="prefix__cls-12" data-name="Path 3138" transform="translate(-207.85 -271.24)"/>
                    <path id="prefix__Path_3139" d="M219.913 273.6s2.816 12.862 2.584 16.637-5.255 6.388-5.255 6.388a95.514 95.514 0 0 1-7.745-19.538" class="prefix__cls-12" data-name="Path 3139" transform="translate(-209.498 -273.595)"/>
                </g>
                <path id="prefix__Path_3140" d="M212.595 255.109s3.778 1.911 5.62 12.576l2.047 13.178s-1.065 1.706-9.336 1.795" class="prefix__cls-8" data-name="Path 3140" transform="translate(-168.198 -213.865)"/>
                <g id="prefix__Group_1895" data-name="Group 1895" transform="translate(0 37.6)">
                    <g id="prefix__Group_1894" data-name="Group 1894">
                        <g id="prefix__Group_1890" data-name="Group 1890" transform="translate(0 181.117)" style="opacity:.8;mix-blend-mode:multiply;isolation:isolate">
                            <path id="prefix__Path_3141" d="M177.741 392.945l.014.015h-.014z" data-name="Path 3141" transform="translate(-177.741 -392.945)" style="fill:#65b0c4"/>
                        </g>
                        <g id="prefix__Group_1893" data-name="Group 1893" transform="translate(4.391)">
                            <path id="prefix__Path_3142" d="M182.8 263.941a47.052 47.052 0 0 0 .865 7.339c1.329 7.51 4.512 16.521 6.67 22.117a17.9 17.9 0 0 1 .8 10.326c-1.524 6.852.207 7.3.207 7.3s9.278 5.889 17 8.291c4.913 1.536 9.192 1.476 9.972-2.865a6.156 6.156 0 0 0 .1-.707c.914-.183.854-1.121.78-1.5-.024-.122-.061-.426-.1-.767-.072-.537-.134-1.183-.134-1.391-.268-13.716 2.049-13.008 2.755-28.37.731-15.765-1.573-23.442-1.943-28.028a60.18 60.18 0 0 0-11.44-3.045 27.112 27.112 0 0 0-9.447.1c-1.693.328-3.639.771-5.431 1.195-8.065 1.91-10.711 4.043-10.654 10.005z" class="prefix__cls-8" data-name="Path 3142" transform="translate(-180.677 -252.279)"/>
                            <path id="prefix__Path_3147" d="M181.518 390.026s.426 7.628.429 8.634c0 .568 3.744 1.191 5.472 0 .167-2.807 1.051-8.622 1.107-10.288" class="prefix__cls-25" data-name="Path 3147" transform="translate(-181.046 -213.143)"/>
                            <path id="prefix__Path_3148" d="M188.4 331.859s-10.567-18.031 3.73-33.952c0 0 9.837 4.4 17.714 4.935a38.962 38.962 0 0 0 9.353-.224 158.134 158.134 0 0 1 2.119 30.925z" class="prefix__cls-15" data-name="Path 3148" transform="translate(-180.149 -239.158)"/>
                            <path id="prefix__Path_3149" d="M206.124 387.643l.932 11.27 2.874 1.246 2.582-1.287.424-10.009" class="prefix__cls-25" data-name="Path 3149" transform="translate(-173.97 -213.353)"/>
                            <path id="prefix__Path_3150" d="M181.156 433.247c1.06.908 7.178 1.555 7.57-.289 1.2-11.1 7.843-41.73 10.1-51.283l.015-.076c2.088-7.768 4.452-19.893 5.767-28.314 1.792 8.58 4.634 19.758 6.543 26.94-5.95 14.731.086 36.155 2.145 53.323 1.329 1 4.77 1.37 7.494-.257-.015-19.893 2.292-42.165 2.715-51.9a15.338 15.338 0 0 0-.045-1.7 23.4 23.4 0 0 0-.046-3.058c-.049-.789.039-25.58-.033-36.212-.017-2.427-.041-4.12-.077-4.615-.021-.279-.06-.57-.109-.864-.3-8.937-.851-26.238-.851-31.974 0-8.962.791-27.6.126-34.011-.211-4.216-.633-11.224-1.118-13.391a8.493 8.493 0 0 0-2.816-.845c.206.189.56 7.425.282 13.087-.1-.017-6.688-1.3-19.768.331 0 0-1.858-9.643-4.1-14.832a17.5 17.5 0 0 0-3.577.914s3.094 13.232 1.16 19.993-6.155 4.239-7.151 2.349c.56 8.332 5.068 23.405 4.163 30.881-.717 5.925-2.28 9.551-3.448 15.321a27.319 27.319 0 0 0-.591 8.789c.184 1.468.639 3.035.7 3.914.381 5.851 1.55 35.941.722 42.205-.032.245-.05.471-.075.706l-.012.021c-6.213 11.718-5.154 38.371-5.562 51.408-.007.157-.154 3.318-.123 3.439z" class="prefix__cls-7" data-name="Path 3150" transform="translate(-181.152 -251.982)"/>
                            <path id="prefix__Path_3151" d="M206.583 400.306c1.378 14.5 1.706 15.693 1.706 15.693-1.948-16.247-7.425-35.51-3-50.828a10.165 10.165 0 0 0 .151-5.262c-2.336-9.528-5.538-21.741-6.881-29.577l1.969-1.59s3.194-13.9 3.952-14.367c.757-.484-.137 4.723-.605 11.158-.485 6.434-1.514 10.37.09 18.076s4.555 14.365 5.162 18.7c-2.297 6.714-3.937 23.479-2.544 37.997z" data-name="Path 3151" transform="translate(-176.146 -234.431)" style="fill:#f25f1d"/>
                        </g>
                    </g>
                    <path id="prefix__Path_3152" d="M206.227 403.047a.453.453 0 0 0 .44.3h16.817c1.007.054 1.618-.327 1.679-.787.1-.734-.592-1.015-.961-1.151 0 0-8.922-3.78-9.373-3.99l-2.213-1.06a12.106 12.106 0 0 1-2.843.389 17.3 17.3 0 0 1-2.612-.346 6.894 6.894 0 0 0-.934 6.645z" class="prefix__cls-27" data-name="Path 3152" transform="translate(-169.684 -210.845)"/>
                    <path id="prefix__Path_3153" d="M181.243 403.047a.453.453 0 0 0 .44.3H198.5c1.007.054 1.618-.327 1.679-.787.1-.734-.592-1.015-.959-1.151 0 0-8.923-3.78-9.375-3.99l-2.213-1.06a12.107 12.107 0 0 1-2.843.389 17.3 17.3 0 0 1-2.612-.346 6.894 6.894 0 0 0-.934 6.645z" class="prefix__cls-27" data-name="Path 3153" transform="translate(-176.868 -210.845)"/>
                </g>
                <path id="prefix__Rectangle_238" d="M0 0H34.707V13.553H0z" data-name="Rectangle 238" transform="rotate(134.916 5.856 56.642)" style="stroke:#e3803d;fill:#cc6824"/>
                <path id="prefix__Path_3154" d="M199.73 299.457s2.69 1.42 4.5 1.154c.689-.1 3.95-.778 4.625-.485a19.279 19.279 0 0 1 3.312 1.383c.451.438 1.254 2.127.994 2.576s1.137.87 1.075 1.586a1.5 1.5 0 0 1-1.25 1.4c-.648.053-.689 1-1.151 1.16a6.663 6.663 0 0 0-1.217.335c-.34.2-.124.712-.989.968-.793.236-.888.013-1.3.1s-.34.443-1.134.388a9.883 9.883 0 0 1-2.777-.909 7.788 7.788 0 0 1-2.99-2.512 12.138 12.138 0 0 0-4.892-2.77z" class="prefix__cls-12" data-name="Path 3154" transform="translate(-172.336 -201.112)"/>
                <path id="prefix__Path_3155" d="M209.821 303.747a6.9 6.9 0 0 1-2.029-1.656c-.471-.426-.747-.348-1.233-.82.139.887.653.691 1.58 1.781a2.459 2.459 0 0 0 1.558 1.076.2.2 0 0 0 .125-.381z" class="prefix__cls-29" data-name="Path 3155" transform="translate(-169.454 -200.591)"/>
                <path id="prefix__Path_3156" d="M184.049 290.823a68.233 68.233 0 0 1 6.322 3.569c2.424 1.637 17.53 9.56 17.53 9.56l-.764 4.514s-21.952-5.852-26.924-9.73c-1.891-1.476-1.747-9.419-1.747-9.419z" class="prefix__cls-12" data-name="Path 3156" transform="translate(-177.533 -204.028)"/>
                <path id="prefix__Path_3157" d="M189.8 278.768s-1.955 13.021-3.516 16.466-7.186 4.094-7.186 4.094a95.523 95.523 0 0 1-.272-21.014" class="prefix__cls-12" data-name="Path 3157" transform="translate(-177.565 -207.193)"/>
                <path id="prefix__Path_3158" d="M178.428 287.072a53.026 53.026 0 0 0 11.237.281c2.687-9.133 4.509-20.467 3.934-23.783-1.022-5.883-.905-9.971-4.915-8.4 0 .002-11.543 3.797-10.256 31.902z" class="prefix__cls-8" data-name="Path 3158" transform="translate(-177.572 -213.945)"/>
                <g id="prefix__Group_1896" data-name="Group 1896" transform="translate(17.533 5.143)">
                    <path id="prefix__Path_3159" d="M209.077 239.575a1.1 1.1 0 0 1 2.148.026 6.569 6.569 0 0 1-.187 3.925c-.4 1.427-1.588 1.351-2.549 1.258" class="prefix__cls-12" data-name="Path 3159" transform="translate(-186.432 -223.718)"/>
                    <path id="prefix__Path_3160" d="M207.481 249.6a40.384 40.384 0 0 0-.653 5.131c.388.662 1.928 1.231 1.928 1.231a4.33 4.33 0 0 1-4.324 4.156c-7.445.366-9.075-4.9-9.075-4.9s1.661-.576 1.734-1.08.2-10.02.2-10.02" class="prefix__cls-12" data-name="Path 3160" transform="translate(-190.208 -222.17)"/>
                    <path id="prefix__Path_3161" d="M208.234 230.508c1.151.752 4.7 1.136 5.172 2.808s.2 5.257.252 6.286c.1 2.047-.088 4.143-.2 6.187-.143 2.663-.524 7.5-3.586 8.78a3.36 3.36 0 0 1-2.155.342c-1.2-.161-2.409-.292-3.612-.454-1.863-.252-3.934-.514-5.5-1.646-2.092-1.514-2.337-5.14-2.234-7.516l.592-13.611z" class="prefix__cls-12" data-name="Path 3161" transform="translate(-189.921 -226.083)"/>
                    <path id="prefix__Path_3162" d="M197.219 243.7c.944-.209 1.709-.5 1.98.425.144.491.13 1.1.552 1.389a.984.984 0 0 0 1.3-.408 2.859 2.859 0 0 0 .286-1.483l.036-3.384a4.872 4.872 0 0 1 .771-3.152 3.532 3.532 0 0 1 1.373-.931 10.811 10.811 0 0 1 5.373-.5 53.043 53.043 0 0 0 5.418.6 5.792 5.792 0 0 0 2.251-.35c1.139-.471-11.556-9.165-14.655-8.824-2.149.236-3.881.285-4.805 3.346a1.17 1.17 0 0 1-.523.366c-2.157.993-4.212 1.6-4.846 4.436a26.707 26.707 0 0 0 .74 11.87 6.6 6.6 0 0 0 .879 2.173 3.989 3.989 0 0 0 2.5 1.478c.887.109 2.511.713 2.8-.133.207-.605-.743-2.112-.946-2.719" class="prefix__cls-30" data-name="Path 3162" transform="translate(-191.358 -227.071)"/>
                    <path id="prefix__Path_3163" d="M198.231 244.364a1.117 1.117 0 0 1-1.979.693 3.849 3.849 0 0 1-1.4-3.585c.2-1.549 1.454-2.757 2.668-1.946a2.075 2.075 0 0 1 .642 2.331" class="prefix__cls-12" data-name="Path 3163" transform="translate(-190.363 -223.565)"/>
                    <path id="prefix__Path_3164" d="M205.448 249.5l-3.823-.591a4.749 4.749 0 0 0 3.576 2.325" class="prefix__cls-29" data-name="Path 3164" transform="translate(-188.406 -220.791)"/>
                </g>
                <g id="prefix__Group_1897" data-name="Group 1897" transform="translate(16.75)">
                    <path id="prefix__Path_3165" d="M198.527 235.423s3.78 4.507 15.553 3.16c.89-.1 3.787-1.434.6-3.528z" class="prefix__cls-15" data-name="Path 3165" transform="translate(-188.514 -219.632)"/>
                    <path id="prefix__Path_3166" d="M217.042 237.291c.242-2.964.1-11.374-9.061-13.146-13.579-2.627-16.348 5.985-16.539 12.9a.978.978 0 0 0-.691.882.811.811 0 0 0 .689.661 23.846 23.846 0 0 0 3.5.31c5.239.4 15.159.887 21.417-.445a.617.617 0 0 0 .556-.117c.849-.561.129-1.045.129-1.045z" class="prefix__cls-7" data-name="Path 3166" transform="translate(-190.75 -222.909)"/>
                    <path id="prefix__Path_3167" d="M198.256 224.09s10.738.354 10.319 15.24a24.29 24.29 0 0 0 4.42-.426s.919-11.359-7.172-14.591c0 0-3.87-2.627-7.567-.223z" class="prefix__cls-16" data-name="Path 3167" transform="translate(-188.592 -223.077)"/>
                </g>
            </g>
            <path id="prefix__Path_3168" d="M242.223 309.479l-14.083-.708a.924.924 0 0 1-.877-.97.924.924 0 0 1 .97-.877l14.083.709a.924.924 0 0 1 .877.97.924.924 0 0 1-.97.876z" data-name="Path 3168" transform="translate(-163.501 -198.965)" style="fill:#7a573d"/>
            <path id="prefix__Path_3169" d="M260.962 313.472l-10.987-.861a3.5 3.5 0 0 1-2.62-1.519l-1.9-2.781h-.008a.591.591 0 0 0-.482-.306l-9.142-.46a.6.6 0 0 0-.06 1.2l7.413.373 2.278 3.263a3.5 3.5 0 0 0 2.872 1.5h12.632a2.188 2.188 0 0 0 1.055-.143c.257-.215-1.051-.266-1.051-.266z" data-name="Path 3169" transform="translate(-161.218 -198.786)" style="fill:#665b52"/>
            <path id="prefix__Path_3170" d="M235.356 306.8c-.18.09-.237.3-.228.56-.626-.7-1.257-.788-1.712-.56a.487.487 0 0 0-.215.442 1.363 1.363 0 0 0-1.59-.442.454.454 0 0 0-.209.38c-.473-.523-.936-.586-1.281-.38-.627.376.453 2.75.453 2.75h7.644c-.891-2.669-2.118-3.126-2.862-2.75z" class="prefix__cls-12" data-name="Path 3170" transform="translate(-162.735 -199.034)"/>
            <path id="prefix__Path_3171" d="M235.084 307.028s1.1 2.831 2.392 2.816c0 0 .273-.045.257-.5a10.363 10.363 0 0 0-.913-3.05" class="prefix__cls-12" data-name="Path 3171" transform="translate(-161.251 -199.146)"/>
        </g>
        <g id="prefix__Group_1901" data-name="Group 1901" transform="translate(212.866 373.604)">
            <path id="prefix__Path_3172" d="M363.919 302h-70.3v14.494H204.2v13.55h-18.01v101.462h177.731z" data-name="Path 3172" transform="translate(-169.491 -301.999)" style="fill:#db742e"/>
            <path id="prefix__Rectangle_239" d="M0 0H34.707V13.553H0z" class="prefix__cls-34" data-name="Rectangle 239" transform="translate(159.722 57.992)"/>
            <path id="prefix__Rectangle_240" d="M0 0H34.707V13.553H0z" class="prefix__cls-34" data-name="Rectangle 240" transform="translate(142.368 72.484)"/>
            <path id="prefix__Rectangle_241" d="M0 0H34.707V13.553H0z" class="prefix__cls-34" data-name="Rectangle 241" transform="translate(159.722 86.976)"/>
            <path id="prefix__Rectangle_242" d="M0 0H34.707V13.553H0z" class="prefix__cls-34" data-name="Rectangle 242" transform="translate(159.722 115.959)"/>
            <path id="prefix__Rectangle_243" d="M0 0H34.707V13.553H0z" class="prefix__cls-34" data-name="Rectangle 243" transform="translate(142.368 101.467)"/>
            <path id="prefix__Rectangle_244" d="M0 0H34.707V13.553H0z" class="prefix__cls-34" data-name="Rectangle 244" transform="translate(124.13 57.992)"/>
            <path id="prefix__Rectangle_245" d="M0 0H34.707V13.553H0z" class="prefix__cls-34" data-name="Rectangle 245" transform="translate(106.776 72.484)"/>
            <path id="prefix__Rectangle_246" d="M0 0H34.707V13.553H0z" class="prefix__cls-34" data-name="Rectangle 246" transform="translate(124.13 86.976)"/>
            <path id="prefix__Rectangle_247" d="M0 0H34.707V13.553H0z" class="prefix__cls-34" data-name="Rectangle 247" transform="translate(124.13 115.959)"/>
            <path id="prefix__Rectangle_248" d="M0 0H34.707V13.553H0z" class="prefix__cls-34" data-name="Rectangle 248" transform="translate(106.776 101.467)"/>
            <path id="prefix__Rectangle_249" d="M0 0H34.707V13.553H0z" class="prefix__cls-3" data-name="Rectangle 249" transform="translate(88.538 57.992)"/>
            <path id="prefix__Rectangle_250" d="M0 0H34.707V13.553H0z" class="prefix__cls-34" data-name="Rectangle 250" transform="translate(71.184 72.484)"/>
            <path id="prefix__Rectangle_251" d="M0 0H34.707V13.553H0z" class="prefix__cls-34" data-name="Rectangle 251" transform="translate(88.538 86.976)"/>
            <path id="prefix__Rectangle_252" d="M0 0H34.707V13.553H0z" class="prefix__cls-34" data-name="Rectangle 252" transform="translate(88.538 115.959)"/>
            <path id="prefix__Rectangle_253" d="M0 0H34.707V13.553H0z" class="prefix__cls-34" data-name="Rectangle 253" transform="translate(71.184 101.467)"/>
            <path id="prefix__Rectangle_254" d="M0 0H34.707V13.553H0z" class="prefix__cls-34" data-name="Rectangle 254" transform="translate(52.946 57.992)"/>
            <path id="prefix__Rectangle_255" d="M0 0H34.707V13.553H0z" class="prefix__cls-34" data-name="Rectangle 255" transform="translate(35.592 72.484)"/>
            <path id="prefix__Rectangle_256" d="M0 0H34.707V13.553H0z" class="prefix__cls-34" data-name="Rectangle 256" transform="translate(52.946 86.976)"/>
            <path id="prefix__Rectangle_257" d="M0 0H34.707V13.553H0z" class="prefix__cls-34" data-name="Rectangle 257" transform="translate(52.946 115.959)"/>
            <path id="prefix__Rectangle_258" d="M0 0H34.707V13.553H0z" class="prefix__cls-34" data-name="Rectangle 258" transform="translate(35.592 101.467)"/>
            <path id="prefix__Rectangle_259" d="M0 0H34.707V13.553H0z" class="prefix__cls-34" data-name="Rectangle 259" transform="translate(17.354 57.992)"/>
            <path id="prefix__Rectangle_260" d="M0 0H34.707V13.553H0z" class="prefix__cls-34" data-name="Rectangle 260" transform="translate(0 72.484)"/>
            <path id="prefix__Rectangle_261" d="M0 0H34.707V13.553H0z" class="prefix__cls-34" data-name="Rectangle 261" transform="translate(17.354 86.976)"/>
            <path id="prefix__Rectangle_262" d="M0 0H34.707V13.553H0z" class="prefix__cls-34" data-name="Rectangle 262" transform="translate(159.722 29.009)"/>
            <path id="prefix__Rectangle_263" d="M0 0H34.707V13.553H0z" class="prefix__cls-34" data-name="Rectangle 263" transform="translate(142.368 43.501)"/>
            <path id="prefix__Rectangle_264" d="M0 0H34.707V13.553H0z" class="prefix__cls-34" data-name="Rectangle 264" transform="translate(124.13 29.009)"/>
            <path id="prefix__Rectangle_265" d="M0 0H34.707V13.553H0z" class="prefix__cls-34" data-name="Rectangle 265" transform="translate(106.776 43.501)"/>
            <path id="prefix__Rectangle_266" d="M0 0H34.707V13.553H0z" class="prefix__cls-34" data-name="Rectangle 266" transform="translate(88.538 29.009)"/>
            <path id="prefix__Rectangle_267" d="M0 0H34.707V13.553H0z" class="prefix__cls-34" data-name="Rectangle 267" transform="translate(71.184 43.501)"/>
            <path id="prefix__Rectangle_268" d="M0 0H34.707V13.553H0z" class="prefix__cls-34" data-name="Rectangle 268" transform="translate(52.946 29.009)"/>
            <path id="prefix__Rectangle_269" d="M0 0H34.707V13.553H0z" class="prefix__cls-34" data-name="Rectangle 269" transform="translate(35.592 43.501)"/>
            <path id="prefix__Rectangle_270" d="M0 0H34.707V13.553H0z" class="prefix__cls-34" data-name="Rectangle 270" transform="translate(17.354 29.009)"/>
            <path id="prefix__Rectangle_271" d="M0 0H34.707V13.553H0z" class="prefix__cls-34" data-name="Rectangle 271" transform="translate(0 43.501)"/>
            <path id="prefix__Rectangle_272" d="M0 0H34.707V13.553H0z" class="prefix__cls-34" data-name="Rectangle 272" transform="translate(159.722)"/>
            <path id="prefix__Rectangle_273" d="M0 0H16.381V13.553H0z" class="prefix__cls-3" data-name="Rectangle 273" transform="translate(178.049 14.492)"/>
            <path id="prefix__Rectangle_274" d="M0 0H16.381V13.553H0z" class="prefix__cls-3" data-name="Rectangle 274" transform="translate(178.049 43.501)"/>
            <path id="prefix__Rectangle_275" d="M0 0H16.381V13.553H0z" class="prefix__cls-34" data-name="Rectangle 275" transform="translate(178.049 72.509)"/>
            <path id="prefix__Rectangle_276" d="M0 0H16.381V13.553H0z" class="prefix__cls-34" data-name="Rectangle 276" transform="translate(178.049 101.518)"/>
            <path id="prefix__Rectangle_277" d="M0 0H34.707V13.553H0z" class="prefix__cls-34" data-name="Rectangle 277" transform="translate(142.368 14.492)"/>
            <path id="prefix__Rectangle_278" d="M0 0H34.707V13.553H0z" class="prefix__cls-34" data-name="Rectangle 278" transform="translate(124.13)"/>
            <path id="prefix__Rectangle_279" d="M0 0H34.707V13.553H0z" class="prefix__cls-34" data-name="Rectangle 279" transform="translate(106.776 14.492)"/>
            <path id="prefix__Rectangle_280" d="M0 0H34.707V13.553H0z" class="prefix__cls-34" data-name="Rectangle 280" transform="translate(71.184 14.492)"/>
            <path id="prefix__Rectangle_281" d="M0 0H34.707V13.553H0z" class="prefix__cls-34" data-name="Rectangle 281" transform="translate(35.592 14.492)"/>
            <path id="prefix__Rectangle_282" d="M0 0H34.707V13.553H0z" class="prefix__cls-34" data-name="Rectangle 282" transform="translate(17.354 115.959)"/>
            <path id="prefix__Rectangle_283" d="M0 0H34.707V13.553H0z" class="prefix__cls-34" data-name="Rectangle 283" transform="translate(0 101.467)"/>
            <path id="prefix__Path_3173" d="M273.18 312.463H220.7a2.734 2.734 0 0 0-2.631 1.774c-.291.877.031 1.733 2.485 1.653 4.908-.161 9.466-3.944 12.86-1.087s2.781 7.2 5.437 5.969.855-5.043 7.695-4.964 8.856 3.944 11.672 2.012 8.85-4.588 12.39-2.575 6.546-2.782 2.572-2.782z" data-name="Path 3173" transform="translate(-160.35 -298.99)" style="fill:#b7b7b7"/>
        </g>
        <g id="prefix__Group_1911" data-name="Group 1911" transform="translate(437.355 282.346)">
            <g id="prefix__Group_1909" data-name="Group 1909" transform="translate(0 2.5)">
                <path id="prefix__Path_3174" d="M347.571 259.876l23.244 71.469a147.492 147.492 0 0 0 32.713-1.208c12.519-1.958 24.588-9 24.588-9l-19.123-66.047s-14.833 4-25.748 5.283a146.531 146.531 0 0 1-35.674-.497z" data-name="Path 3174" transform="translate(-347.571 -226.731)" style="fill:#e59a67"/>
                <path id="prefix__Path_3175" d="M423 284.756s-1.5 19.1-3 21.353-8.906-.752-8.906-.752l3.863-22.961" class="prefix__cls-12" data-name="Path 3175" transform="translate(-329.305 -218.879)"/>
                <path id="prefix__Path_3176" d="M423.551 291.946a33.688 33.688 0 0 1-3.785.23 21.575 21.575 0 0 1-3.773-.269s-1.378 1.223-3.258 2.87c.1-.887.232-2.021.373-3.359.039-.322.077-.67.116-1.018.013-.063.013-.142.026-.2l.077-.747c.026-.322.064-.644.1-.993.09-.863.193-1.776.3-2.728s.206-1.97.322-3.013c.064-.581.129-1.16.18-1.751.116-1.006.232-2.021.335-3.04.052-.528.116-1.069.167-1.609a.245.245 0 0 0 .013-.09c.039-.322.064-.631.1-.939.489-4.687.966-9.206 1.3-12.425 2.086 1.262 6.232 4.673 6.7 12.411.039.425.064.89.077 1.391.217 3.807.488 9.588.63 15.279z" class="prefix__cls-8" data-name="Path 3176" transform="translate(-328.832 -224.497)"/>
                <path id="prefix__Path_3177" d="M420.048 288.424c-.1.4-.193.8-.283 1.2a21.575 21.575 0 0 1-3.773-.269s-1.378 1.223-3.258 2.87c.1-.887.232-2.021.373-3.359.039-.322.077-.67.116-1.018.013-.063.013-.142.026-.2l.077-.747c.026-.322.064-.644.1-.993.09-.863.193-1.776.3-2.728s.206-1.97.322-3.013c.219-2.087.464-4.25.682-6.4a.245.245 0 0 0 .013-.09c.039-.322.064-.631.1-.939l6.386-.98s2 2.593-1.181 16.666z" class="prefix__cls-37" data-name="Path 3177" transform="translate(-328.832 -221.941)"/>
                <g id="prefix__Group_1903" data-name="Group 1903" transform="translate(62.253 95.652)">
                    <g id="prefix__Group_1902" data-name="Group 1902" transform="translate(0 113.556)">
                        <path id="prefix__Path_3178" d="M406.484 395.548s-.072 6.062.021 7.32 4.855 1.277 5.322.625.305-7.409.305-7.409" class="prefix__cls-25" data-name="Path 3178" transform="translate(-392.89 -395.548)"/>
                        <path id="prefix__Path_3179" d="M416.173 403.254a33.137 33.137 0 0 1-.453 4.277h-5.728l-.282-.957a9 9 0 0 1-3.317.957h-4.835c-3.54 0-5.631-.444-5.638-1.074-.023-1.808 3.913-2.13 4.954-2.485 3.588-1.222 5.947-1.868 7.33-3.084.964-.848.3-1.46.957-1.241a1.635 1.635 0 0 1 .982.847 2.9 2.9 0 0 0 2.986 1.629 3.447 3.447 0 0 0 1.937-.934 2.09 2.09 0 0 1 1.107 2.065z" class="prefix__cls-38" data-name="Path 3179" transform="translate(-395.92 -394.382)"/>
                    </g>
                    <path id="prefix__Path_3180" d="M421.015 324.3c-1.175 8.107-2.951 8.562-3.263 12.507-2.183 26.059-7.531 34.454-4.988 39.334 1.763 3.358-11.932 2.555-12.784-1.8a42.8 42.8 0 0 1-.9-8.946c-.036-1.031-.085-2.266-.156-3.814-.576-11.571-.541-22.544-.541-22.544l.085-8.011.023-2.627.216-21.047 19.007 1.776s4.464 7.041 3.301 15.172z" class="prefix__cls-7" data-name="Path 3180" transform="translate(-395.211 -307.354)"/>
                    <path id="prefix__Path_3181" d="M411.185 356.7s4.922 13.993 4.751 22.361-1.213 30.568-1.213 30.568-4.329.825-6.61.089c0 0-8.756-47.747-8.991-52.991s12.063-.027 12.063-.027z" class="prefix__cls-7" data-name="Path 3181" transform="translate(-395 -293.828)"/>
                </g>
                <g id="prefix__Group_1904" data-name="Group 1904" transform="translate(39.224 209.046)">
                    <path id="prefix__Path_3182" d="M388.6 395.422s-.071 6.062.022 7.32 4.855 1.277 5.322.625.305-7.409.305-7.409" class="prefix__cls-25" data-name="Path 3182" transform="translate(-375.005 -395.422)"/>
                    <path id="prefix__Path_3183" d="M398.29 403.128a33.135 33.135 0 0 1-.453 4.277h-5.728l-.282-.957a9 9 0 0 1-3.317.957h-4.835c-3.54 0-5.631-.444-5.64-1.074-.022-1.808 3.914-2.13 4.956-2.485 3.589-1.222 5.947-1.868 7.33-3.084.964-.849.3-1.46.957-1.241a1.635 1.635 0 0 1 .981.847 2.9 2.9 0 0 0 2.987 1.632 3.46 3.46 0 0 0 1.937-.933 2.09 2.09 0 0 1 1.107 2.061z" class="prefix__cls-38" data-name="Path 3183" transform="translate(-378.035 -394.256)"/>
                </g>
                <path id="prefix__Path_3184" d="M406.6 330.493c-2.206 7.039-3.406 10.961-4.6 16.346s-2.914 15.421-2.914 15.421c-.036-1.031-.085-2.266-.156-3.814-.576-11.571-.541-22.544-.541-22.544l.085-8.011.023-2.627.84-2.422 7.255-4.581a18.923 18.923 0 0 1 .008 12.232z" class="prefix__cls-39" data-name="Path 3184" transform="translate(-332.959 -208.565)"/>
                <path id="prefix__Path_3185" d="M385.171 361.407c-.171 7.145-.516 7.6.1 12.795.52 4.409 14.117 6.231 12.612 2.752-2.168-5.051 3.8-13.025 7.918-38.85.609-3.908 2.412-4.23 4.192-12.231 1.766-8.016-1.967-19.422-1.967-19.422l-19.011.865L387 330.9l-.672 7.975s-.862 10.947-1.157 22.532z" class="prefix__cls-7" data-name="Path 3185" transform="translate(-336.831 -211.961)"/>
                <path id="prefix__Path_3186" d="M397.072 357.947s3.912 14.309 3.143 22.643-4.342 29.062-4.342 29.062-4.378.512-6.6-.384c0 0-5.19-47.488-4.239-56.584.547-5.222 12.038 5.263 12.038 5.263z" class="prefix__cls-7" data-name="Path 3186" transform="translate(-336.831 -199.085)"/>
                <path id="prefix__Path_3187" d="M412.408 266.1s-1.367-4.633-.769-8.053 2.65-9.573 1.88-14.189-6.581-8.458-12.735-7.858-7.949 6.5-8.974 9.916-.855 8.633-.6 11.453 1.795 5.043 2.821 5.642 4.884-.19 5.562.546 1.19 5.095 1.19 5.095" class="prefix__cls-12" data-name="Path 3187" transform="translate(-335.078 -232.239)"/>
                <path id="prefix__Path_3188" d="M414.186 263.214s-.341-2.7-1.367-3.658-7.863-.958-9.914-.7-7.11 2.614-7.778 3.113.65 3.094.65 3.094z" class="prefix__cls-8" data-name="Path 3188" transform="translate(-333.95 -225.69)"/>
                <path id="prefix__Path_3189" d="M411.828 261.1s-8.547.726-10.172 0-3.974-2.309-4.187-5.215.384-3.8-.728-5.428-2.093-1.067-2.265.471-.238 4.317-.641 4.521c-.545.277-1.192-1.68-.982-4.649a18.381 18.381 0 0 1 1.239-6.282c.77-1.71 1.186-1.613 1.881-1.924-.748-.363-1.557-.407-3.035-2.714-1.711-2.67-.769-6.833 3.761-6.816 7.913.03 16.326 1.581 16.5 7.437 0 0 2.779-.428 2.864 4.915s-3.334 11.8-3.59 13.462.21 1.839-.645 2.222z" class="prefix__cls-30" data-name="Path 3189" transform="translate(-334.754 -233.065)"/>
                <path id="prefix__Path_3190" d="M428.878 273.876v.09a101.259 101.259 0 0 1-1.416 10.6c-.309 1.75-.644 3.552-1 5.356-.708 3.631-1.494 7.313-2.189 10.713-.451 2.163-.863 4.21-1.21 6.063-.528 2.744-.9 5.15-1.172 7.172a25.433 25.433 0 0 0 .18 7.2c.167.979.142 1.92-.373 2.229-1.094.618-6.644-1.546-17.511-1.082-2.717.206-5.961.515-8.807.76-.039 0-.09.013-.142.013h-.09c-3.206.27-5.82.425-6.464.193-1.6-.581.747-4.725 1.069-7.4a50.6 50.6 0 0 0-.116-8.6c-1.185-9.992-3.721-23.357-3.245-31.636.051-.644.09-1.263.167-1.828 1.017-8.022 9.8-13.4 28.481-12.245-.003-.009 14.675-1.311 13.838 12.402z" class="prefix__cls-40" data-name="Path 3190" transform="translate(-336.425 -224.943)"/>
                <path id="prefix__Path_3191" d="M427.779 271.28c-11.485 1.313-29.331-.631-29.331-.631s-17.06 7.185-2.253 10.082c11.794 2.306 25.2 1.546 30.168 1.147z" class="prefix__cls-41" data-name="Path 3191" transform="translate(-335.326 -222.257)"/>
                <path id="prefix__Path_3192" d="M426.054 283.651c-.708 3.631-1.494 7.313-2.189 10.713-5.022.4-18.361 1.132-30.091-1.159-14.807-2.9 2.253-10.095 2.253-10.095s18.594 2.034 30.027.541z" class="prefix__cls-41" data-name="Path 3192" transform="translate(-336.022 -218.674)"/>
                <path id="prefix__Path_3193" d="M392.512 316.22a5.129 5.129 0 0 1 1.488-1.964c.72-.6 1.535-1.807 2.136-4.186 5.712-22.635 4.266-36.962 4.266-36.962l-7.769 21.043c-.331-2.552-.663-5.22-.935-7.84a68.963 68.963 0 0 1-.016-14.861c-.448.9-1.734 2.153-5.352 2.991-.075 8.327 2.2 20.526 3.3 29.81a50.191 50.191 0 0 1 .1 8.611c-.313 2.676-2.66 6.818-1.061 7.4.644.224 3.259.075 6.458-.194-2.885.209-3.424-2-2.781-3.484.06-.109.111-.232.166-.364z" class="prefix__cls-37" data-name="Path 3193" transform="translate(-336.425 -222.026)"/>
                <g id="prefix__Group_1908" data-name="Group 1908" transform="translate(7.122 60.193)">
                    <path id="prefix__Path_3194" d="M402.923 282.817s-6.717 24.765-12.159 26.494c-3.118.991-27.2-14.307-27.2-14.307l5.409-3.469 17.387 5.289 4.129-17.01z" class="prefix__cls-12" data-name="Path 3194" transform="translate(-350.094 -279.814)"/>
                    <g id="prefix__Group_1907" data-name="Group 1907" transform="translate(0 .884)">
                        <path id="prefix__Path_3195" d="M357.342 289.736a9.6 9.6 0 0 0-.4-1.075c-.384-.744-1.127-1.244-1.559-1.961a11.815 11.815 0 0 1-.706-1.831c-.272-.691-1.082-1.743-.534-2.014-.256-.412-.6-.861-.836-1.285-.18-.319-.372-.985.04-1.056.612-.107 1.512.473 2.006.719.655.328 1.826 1.36 2.44 1.756a6.819 6.819 0 0 0 2.721 1.033s-.439-.412-.308-.731c.2-.495 1.5-.14 2.736-.349.639-.107 2.713 1.25 3.375 1.618s2.162 3.456 2.512 4.082c.919 1.64 3.77 2.945 3.77 2.945l-4.282 4.123c-.1.1-.891-.46-.993-.521a3.593 3.593 0 0 0-1.442-.561c-2.051-1.033-4.611-1.04-6.518-2.388a5.485 5.485 0 0 1-2-2.45z" class="prefix__cls-12" data-name="Path 3195" transform="translate(-353.102 -280.501)"/>
                        <g id="prefix__Group_1906" data-name="Group 1906" transform="translate(7.116 3.501)">
                            <g id="prefix__Group_1905" data-name="Group 1905">
                                <path id="prefix__Path_3196" d="M358.925 283.239a7.115 7.115 0 0 0 2.628.615c.644.117.752.391 1.445.491-.811.446-.975-.1-2.446-.169a2.531 2.531 0 0 1-1.859-.6.209.209 0 0 1 .233-.341z" data-name="Path 3196" transform="translate(-358.629 -283.22)" style="fill:#f2a19c"/>
                            </g>
                        </g>
                    </g>
                </g>
                <path id="prefix__Path_3197" d="M396.754 292.042c-4.868 0-10.984-2.132-13.509-3.264 1.313-13.535 4.7-19.626 7.092-22.3a6.219 6.219 0 0 1 5.986-1.989c2.573.6 5.66 2.831 5.663 10.123.001 4.288-4.286 15.846-5.232 17.43z" class="prefix__cls-8" data-name="Path 3197" transform="translate(-337.312 -224.073)"/>
            </g>
            <g id="prefix__Group_1910" data-name="Group 1910" transform="translate(50.981)">
                <path id="prefix__Path_3198" d="M417.991 250.187c-.125.585-1.026.473-1.026.473a75.973 75.973 0 0 1-11.809-1.666c-.089-.012-.653-.108-1.522-.255q-.885-.131-1.843-.308a.628.628 0 0 0-.155-.019c-4.949-.852-13.44-2.419-14.284-3.295-1.205-1.233 3.843-1.911 3.843-1.911h.013c.355-4.006 2.484-13.236 14.8-11.964.851.094 1.646.219 2.4.377h.013l.012.014c11.785 2.488 10.167 13.18 9.059 17.351a1.035 1.035 0 0 1 .499 1.203z" class="prefix__cls-7" data-name="Path 3198" transform="translate(-387.166 -231.123)"/>
                <path id="prefix__Path_3199" d="M414.313 250.072c-.125.585-1.026.473-1.026.473a75.979 75.979 0 0 1-11.81-1.666c-.089-.012-.653-.108-1.522-.255 7.2 1.053 10.626-.27 10.626-.27 2.763-14.346-5.364-16.6-5.831-16.832 11.785 2.488 10.167 13.18 9.059 17.351a1.035 1.035 0 0 1 .504 1.199z" class="prefix__cls-16" data-name="Path 3199" transform="translate(-383.488 -231.009)"/>
            </g>
        </g>
        <g id="prefix__Group_1912" data-name="Group 1912" transform="translate(148.273 478.619)">
            <path id="prefix__Path_3200" d="M229.278 414.784H123.054a62.941 62.941 0 0 1 9.348-12.039c8.549-8.794 23.035-19.185 43.764-19.185a58.006 58.006 0 0 1 30.94 8.82 68.325 68.325 0 0 1 22.172 22.404z" class="prefix__cls-43" data-name="Path 3200" transform="translate(-123.054 -383.56)"/>
            <path id="prefix__Path_3201" d="M229.278 412.814H123.054a62.94 62.94 0 0 1 9.348-12.039c3.554-2.356 11.1-6.271 19.043-3.618 10.944 3.67 15.451 8.318 21.4 9.129s9.824-13.339 17.073-13.983 22.713 7.017 17.189-1.893a68.325 68.325 0 0 1 22.171 22.404z" data-name="Path 3201" transform="translate(-123.054 -381.59)" style="fill:#f2c27c"/>
        </g>
        <g id="prefix__Group_1919" data-name="Group 1919" transform="translate(259.177 282.852)">
            <g id="prefix__Group_1913" data-name="Group 1913" transform="translate(116.547 207.84)">
                <path id="prefix__Path_3202" d="M309.384 392.937s-.309 7.985.107 9.814c.328 1.439 4.8 1.581 5.347.818s1.24-10.03 1.24-10.03" class="prefix__cls-45" data-name="Path 3202" transform="translate(-296.954 -392.937)"/>
                <path id="prefix__Path_3203" d="M318.828 402.965c0 1.013.5 4.038-.734 4.038h-13.06c-3.34 0-5.236-.426-5.321-1.013-.345-2.4 11.32-6.442 12.437-6.435a.391.391 0 0 1 .142.032 1.6 1.6 0 0 1 .818.725 3.063 3.063 0 0 0 3.89 1.265 2.7 2.7 0 0 0 .784-.559 1.972 1.972 0 0 1 1.044 1.947z" class="prefix__cls-46" data-name="Path 3203" transform="translate(-299.705 -391.034)"/>
            </g>
            <g id="prefix__Group_1914" data-name="Group 1914" transform="translate(169.934 206.15)">
                <path id="prefix__Path_3204" d="M346.874 395.112s1.406 3.787 2.023 5.05 4.8-.294 5.015-1.161-3.186-7.377-3.186-7.377" class="prefix__cls-45" data-name="Path 3204" transform="translate(-339.528 -391.624)"/>
                <path id="prefix__Path_3205" d="M357.483 398.291c1.315 2.636 1 3.869.585 4.119l-3.5 2.105-.023.013c-.116.059-1.606.814-2.744 1.522a15.493 15.493 0 0 1-3.895 1.634c-3.581.824-6.35.43-6.634-.062-1.149-2 7.715-9.666 8.723-10.073a.371.371 0 0 1 .146-.023 1.542 1.542 0 0 1 1.017.388 2.608 2.608 0 0 0 3.039.362 3.1 3.1 0 0 0 1.3-1.42 2.66 2.66 0 0 1 1.986 1.435z" class="prefix__cls-46" data-name="Path 3205" transform="translate(-341.168 -390.12)"/>
            </g>
            <g id="prefix__Group_1915" data-name="Group 1915" transform="translate(130.661 95.547)">
                <path id="prefix__Path_3206" d="M362.444 417.071a.545.545 0 0 1-.188.649 12.653 12.653 0 0 1-5.426 2.516c0-.009-.009-.018-.018-.027-.742-1.167-23.977-37.861-28.436-44.979-.09-.155-.18-.3-.263-.425-.018-.027-.045-.036-.045-.073a8.478 8.478 0 0 1-.724-1.419c-.036-.091-.081-.182-.108-.254a3.878 3.878 0 0 1-.236-.76c-.036-.154-.063-.3-.09-.461 0-.018-.018-.045-.018-.073-.625-3.165-2.108-8.592-3.908-14.914-1.021-3.582-2.134-7.443-3.246-11.342-.887-3.057-1.764-6.1-2.569-8.981l-6.485-25.228a.541.541 0 0 1 .488-.673l5.2-.345c6.605-.451 14.667-3.778 16.383-4.514a.546.546 0 0 1 .6.121c7.575 7.573 6.133 17.065 5.212 21.822 0 .009-.009.018-.009.036a25.426 25.426 0 0 0-.371 6.63c.524 6.833 1.536 19.594 1.637 28.466v.023c.017.246.384 5.533 5.426 11.8a27.012 27.012 0 0 1 2.686 3.393c7.539 11.366 10.323 29.05 14.508 39.012z" class="prefix__cls-7" data-name="Path 3206" transform="translate(-310.667 -305.724)"/>
                <path id="prefix__Path_3207" d="M354.055 415.118c-.742-1.167-23.977-37.861-28.436-44.979-.09-.154-.18-.3-.263-.425-.018-.027-.045-.036-.045-.073a8.462 8.462 0 0 1-.724-1.419c-.036-.091-.081-.181-.108-.254a3.889 3.889 0 0 1-.236-.76c-.036-.155-.063-.3-.09-.461 0-.018-.018-.045-.018-.073-.618-3.137-2.081-8.493-3.858-14.741a.544.544 0 0 1 .012-.339l10.371-27.819a.542.542 0 0 1 .506-.352h2.722a.537.537 0 0 1 .514.706c-.922 2.8-4.346 13.2-5.871 18.289-1.764 5.879-2.252 15.1-2.406 18.469-.344 7.407 8.755 19.979 11.36 24.555 2.786 4.912 15.529 27.632 16.57 29.676z" class="prefix__cls-39" data-name="Path 3207" transform="translate(-307.909 -300.634)"/>
            </g>
            <path id="prefix__Path_3208" d="M334.241 331.865c.779-.363 3.906-2.124 5.891-7.718a.554.554 0 0 0-.219-.648c-3.021-1.915-24.068-15.079-29.107-13.473-1.545.5-4.472 49.463-4.449 50.506.012.514-.022 5.821 0 6.439.331 8.341 3.256 49.859 3.582 54.462a.528.528 0 0 0 .443.489 35.236 35.236 0 0 0 5.719.377l.542-.47c1.317-11.14 7.056-32.111 4.167-45.252-.036-.163-.055-.323-.086-.487-.018-.26-.05-.595-.1-1.039-.7-5.81-.718-4.116.872-11.444a.6.6 0 0 1 .024-.081c3.555-9.16 10.258-25.857 12.464-31.39a.5.5 0 0 1 .257-.271z" class="prefix__cls-7" data-name="Path 3208" transform="translate(-181.247 -208.978)"/>
            <path id="prefix__Path_3209" d="M342.6 289.717c-.026 2.794-.193 5.575-.412 8.253-.3 3.283-.7 6.412-1.107 9.245-.979 6.76-2.06 11.781-1.957 12.992a6.617 6.617 0 0 0 .682 2.163 1.438 1.438 0 0 1-.322 1.674c-.451.193-.914.373-1.391.554-11.794 4.313-29.151.644-29.151.644-.721.052-1.442-.515-1.159-1.88a67.114 67.114 0 0 0 1.262-7.094c-.039-.979.245-4.3.8-8.9.193-1.635.425-3.412.7-5.318.219-1.609.476-3.309.747-5.06.322-2.034.592-4.03.863-5.974.3-2.2.579-4.339.888-6.451a84.7 84.7 0 0 1 2.189-10.532 43.829 43.829 0 0 1 3.206-8.2c3.283-6.322 11.24-7.313 12.618-7.442a.509.509 0 0 1 .361.09c5.936 3.966 8.961 10.79 10.3 18.515a70.411 70.411 0 0 1 .883 12.721z" class="prefix__cls-40" data-name="Path 3209" transform="translate(-180.854 -223.789)"/>
            <path id="prefix__Path_3210" d="M341.408 285.88c-3.373-.193-21.412-1.4-29.563-5.15a89.02 89.02 0 0 1 1.777-9c3.206 1.262 10.584 3.116 27.3 4.21a75.052 75.052 0 0 1 .486 9.94z" class="prefix__cls-41" data-name="Path 3210" transform="translate(-179.667 -219.952)"/>
            <path id="prefix__Path_3211" d="M341.553 290.683c-.3 3.283-.7 6.412-1.107 9.245 0 0-21.425-1.043-30.541-5.163.219-1.609.476-3.309.747-5.06.322-2.034.592-4.03.863-5.974a67.691 67.691 0 0 0 30.026 6.953z" class="prefix__cls-41" data-name="Path 3211" transform="translate(-180.225 -216.501)"/>
            <path id="prefix__Path_3212" d="M330.3 269.98c-.47 5.893-2.659 24.875-11.725 33.308a.542.542 0 0 1-.125.09c-.466.251-3.278 1.6-8.558.9a.548.548 0 0 1-.476-.6c.354-2.864.806-6.182 1.356-9.715a.551.551 0 0 1 .107-.249l18.453-24.1a.539.539 0 0 1 .968.366z" class="prefix__cls-37" data-name="Path 3212" transform="translate(-180.367 -220.622)"/>
            <path id="prefix__Path_3213" d="M223.22 363.763s3.062-15.779 22.458-28.279c18.8-12.119 40.361-1.12 40.361-1.12z" class="prefix__cls-43" data-name="Path 3213" transform="translate(-205.153 -203.255)"/>
            <g id="prefix__Group_1916" data-name="Group 1916" transform="translate(0 106.74)">
                <path id="prefix__Path_3214" d="M214.551 365.03l77.518-35.73-4.218 23.394a19.242 19.242 0 0 1-9.8 13.52L253.4 379.522a19.241 19.241 0 0 1-20.318-1.269z" class="prefix__cls-43" data-name="Path 3214" transform="translate(-207.646 -310.137)"/>
                <path id="prefix__Path_3215" d="M292.067 329.3l-4.223 23.4a19.224 19.224 0 0 1-9.786 13.519L253.4 379.528a19.27 19.27 0 0 1-20.318-1.275l-.142-.1-18.387-13.12 61.1-28.159z" data-name="Path 3215" transform="translate(-207.645 -310.137)" style="fill:#b73116"/>
                <path id="prefix__Path_3216" d="M275.65 335.18l-2.228 12.4a19.276 19.276 0 0 1-9.8 13.519l-24.657 13.3a19.558 19.558 0 0 1-6.026 2.06l-18.387-13.12z" data-name="Path 3216" transform="translate(-207.645 -308.446)" style="fill:#c63d19"/>
                <circle id="prefix__Ellipse_49" cx="17.06" cy="17.06" r="17.06" class="prefix__cls-6" data-name="Ellipse 49" transform="translate(2.495 85.479)"/>
                <path id="prefix__Path_3217" d="M244.711 397.121a17.06 17.06 0 0 1-31.726 8.717 17.064 17.064 0 0 0 24.773-22.468 17.043 17.043 0 0 1 6.953 13.751z" data-name="Path 3217" transform="translate(-208.096 -294.588)" style="fill:#331c08"/>
                <circle id="prefix__Ellipse_50" cx="7.404" cy="7.404" r="7.404" data-name="Ellipse 50" transform="translate(12.151 95.135)" style="fill:#726b65"/>
                <path id="prefix__Path_3218" d="M227.788 394.678a2.79 2.79 0 1 1-2.79-2.79 2.79 2.79 0 0 1 2.79 2.79z" class="prefix__cls-6" data-name="Path 3218" transform="translate(-205.444 -292.139)"/>
                <path id="prefix__Path_3219" d="M209.188 426.469l35.2-16.912a4.029 4.029 0 0 0 2.284-3.679l-.124-10.616a9.583 9.583 0 0 1 5-7.839L280.98 371.5a19.036 19.036 0 0 0 9.644-13.2l4.034-21.33a13.147 13.147 0 0 1 5.709-8.551l21.348-14" data-name="Path 3219" transform="translate(-209.188 -314.417)" style="stroke-width:2px;fill:none;stroke:#ffe8d7;stroke-linecap:round;stroke-miterlimit:10"/>
                <path id="prefix__Path_3220" d="M240.146 377.781l46.9 31.279a2.375 2.375 0 0 0 3.626-2.536L278.1 354.758" data-name="Path 3220" transform="translate(-200.285 -302.816)" style="fill:none;stroke:#ffe8d7;stroke-linecap:round;stroke-miterlimit:10"/>
            </g>
            <g id="prefix__Group_1917" data-name="Group 1917" transform="translate(110.92 44.71)">
                <path id="prefix__Path_3221" d="M327.907 274.725a25.242 25.242 0 0 0 .618-4.687c-.515-4.79-5.575-3.914-6.489-3.335-1.056.644-3.708 2.717-6.682 11.537-2.047 6.077-3.27 10.764-4.03 13.687-.245.876-.579 1.931-.85 2.82l6.092 8.748c5.01-3.142 9.702-20.175 11.341-28.77z" class="prefix__cls-12" data-name="Path 3221" transform="translate(-290.982 -266.24)"/>
                <path id="prefix__Path_3222" d="M311.517 295.76c-2.674 3.881-11.777 19.665-16.182 25.135l2.7 2c.139-.233.287-.476.452-.721.015-.021 1.49-.989 1.523-1.013 2.955-3.243 6.263-5.98 11-10.79 4.9-4.993 9.42-10.227 11.253-13.45a55.547 55.547 0 0 0 2.925-5.164l-9.76-4.907a34.874 34.874 0 0 1-3.911 8.91z" class="prefix__cls-12" data-name="Path 3222" transform="translate(-295.335 -260.315)"/>
            </g>
            <path id="prefix__Path_3223" d="M298.318 312.115a13.634 13.634 0 0 1-2.709 2.565c-1.039.537-3.14.917-4.181 1.348s-2.367 7.71-1.721 8.319 4.053.287 5.99-1.362 1.736-3.15 2.294-4.071a48.859 48.859 0 0 1 3.69-5.024l-.785-1.555z" class="prefix__cls-12" data-name="Path 3223" transform="translate(-186.082 -208.339)"/>
            <path id="prefix__Path_3224" d="M331.8 264.268a4.712 4.712 0 0 1-.882 1.145l-.027.027c-2.115 2.049-5.879 2.43-7.492 2.5a.537.537 0 0 1-.549-.653 7.822 7.822 0 0 0-.39-3.764.547.547 0 0 0-.711-.342c-2.732 1.016-5.324 1.509-6.968.865a.637.637 0 0 1-.228-.158 18.8 18.8 0 0 1-2.964-4.4.524.524 0 0 0-.541-.294c-.766.1-1.85.134-2.087-.5-.3-.821.261-3.706.489-4.79-.009-.035-.027-.078-.035-.122a8.443 8.443 0 0 0 .026-2.745c-.07-.263-.639-.568-.778-.778a15.571 15.571 0 0 1-1.857-5.3.508.508 0 0 1 .21-.512c1.164-.837 5.834-4.185 6.208-4.262.438-.1 11.171-2.072 11.538-1.922s5.8 6.529 6.513 13.478a9.973 9.973 0 0 1-1.145 6.153h.008s-.1 4.87 1.662 6.374z" class="prefix__cls-12" data-name="Path 3224" transform="translate(-181.117 -229.581)"/>
            <path id="prefix__Path_3225" d="M313.094 280.377c1.908 2.312 9.513 4.891 12.675 5.11 1.764-4.589 7.537-19.434 1.114-22.012-7.083-2.844-11.349 8.167-13.789 16.902z" class="prefix__cls-8" data-name="Path 3225" transform="translate(-179.308 -222.458)"/>
            <path id="prefix__Path_3226" d="M327.415 260.458c-2.116 2.049-5.879 2.43-7.492 2.5a.537.537 0 0 1-.549-.653 7.989 7.989 0 0 0-.445-3.943.548.548 0 0 1 .171-.6 18.525 18.525 0 0 0 2.154-2.011.538.538 0 0 1 .941.38l-.228 4.9a.535.535 0 0 0 .492.564c1.041.085 3.403.105 4.956-1.137z" class="prefix__cls-29" data-name="Path 3226" transform="translate(-177.638 -224.6)"/>
            <path id="prefix__Path_3227" d="M308.012 248.841c3.891 2.234 10.458.033 12.107 1.006s2.258 5.024 3.014 5.152c.8.136.618-1.087.528-2.574s-.335-3.165 2.265-2.673c1.156.206 1.833 3.554 2.665 6.17a9.848 9.848 0 0 0 1.494 3.305.54.54 0 0 0 .863-.1c4.2-7.316 3.362-23.5-7.8-23.4a.521.521 0 0 1-.323-.108 10.057 10.057 0 0 0-6.887-2.092c-.022.006-.052 0-.073.009-6.919.715-11.565 13.164-7.853 15.305z" data-name="Path 3227" transform="translate(-181.147 -230.952)" style="fill:#2c1e56"/>
            <g id="prefix__Group_1918" data-name="Group 1918" transform="translate(122.277)">
                <path id="prefix__Path_3228" d="M334.554 244.947c.125.586-.743.851-.743.851a75.979 75.979 0 0 1-11.463 3.294c-.086.026-.64.167-1.494.388q-.861.241-1.809.47a.675.675 0 0 0-.148.045c-4.866 1.241-13.258 3.273-14.386 2.817-1.6-.636 2.73-3.313 2.73-3.313h.012c-1.308-3.8-3.128-13.1 8.637-16.959.814-.261 1.59-.471 2.341-.632h.012l.017.009c11.775-2.535 14.656 7.888 15.347 12.15a1.033 1.033 0 0 1 .947.88z" class="prefix__cls-7" data-name="Path 3228" transform="translate(-304.156 -231.516)"/>
                <path id="prefix__Path_3229" d="M331.4 244.947c.125.586-.743.851-.743.851a75.982 75.982 0 0 1-11.463 3.294c-.086.026-.64.167-1.494.388 7-1.973 9.592-4.58 9.592-4.58-3.327-14.226-11.668-12.974-12.188-12.99 11.775-2.535 14.656 7.888 15.347 12.15a1.033 1.033 0 0 1 .949.887z" class="prefix__cls-16" data-name="Path 3229" transform="translate(-301.006 -231.516)"/>
            </g>
        </g>
        <g id="prefix__Group_1926" data-name="Group 1926" transform="translate(137.133 466.04)">
            <g id="prefix__Group_1921" data-name="Group 1921" transform="translate(159.464 21.048)">
                <g id="prefix__Group_1920" data-name="Group 1920">
                    <path id="prefix__Path_3230" d="M279.3 435.074h-36.68l.33-1.134 6.179-21 1.168-3.953.677-2.319 1.168-3.953 2.251-7.667a6.847 6.847 0 0 1 13.136 0l2.251 7.667 1.168 3.953.677 2.319 1.168 3.953 6.179 21z" class="prefix__cls-15" data-name="Path 3230" transform="translate(-236.994 -390.138)"/>
                    <path id="prefix__Path_3231" d="M284.771 427.879h-45.1a1.421 1.421 0 0 1-1.421-1.421 1.421 1.421 0 0 1 1.421-1.421h45.1a1.421 1.421 0 0 1 1.421 1.421 1.421 1.421 0 0 1-1.421 1.421z" class="prefix__cls-15" data-name="Path 3231" transform="translate(-238.251 -380.102)"/>
                    <path id="prefix__Path_3232" d="M269.084 403.861h-19.973l1.168-3.952h17.638z" class="prefix__cls-54" data-name="Path 3232" transform="translate(-235.128 -387.328)"/>
                    <path id="prefix__Path_3233" d="M271.342 408.732h-23.664l1.168-3.952h21.328z" class="prefix__cls-54" data-name="Path 3233" transform="translate(-235.54 -385.927)"/>
                    <path id="prefix__Path_3234" d="M279.3 425.291h-36.68l.33-1.134h36.02z" class="prefix__cls-55" data-name="Path 3234" transform="translate(-236.994 -380.355)"/>
                </g>
            </g>
            <g id="prefix__Group_1923" data-name="Group 1923" transform="translate(0 9.801)">
                <g id="prefix__Group_1922" data-name="Group 1922">
                    <path id="prefix__Path_3235" d="M147.506 417.639h-29.578l.265-.915 4.983-16.932.941-3.188.546-1.87.942-3.187 1.815-6.184a5.521 5.521 0 0 1 10.592 0l1.815 6.184.943 3.187.546 1.87.941 3.188 4.983 16.932z" class="prefix__cls-15" data-name="Path 3235" transform="translate(-113.388 -381.403)"/>
                    <path id="prefix__Path_3236" d="M151.915 411.837h-36.367a1.147 1.147 0 0 1-1.146-1.147 1.147 1.147 0 0 1 1.146-1.146h36.367a1.146 1.146 0 0 1 1.146 1.146 1.146 1.146 0 0 1-1.146 1.147z" class="prefix__cls-15" data-name="Path 3236" transform="translate(-114.402 -373.31)"/>
                    <path id="prefix__Path_3237" d="M139.266 392.469h-16.107l.942-3.187h14.223z" class="prefix__cls-54" data-name="Path 3237" transform="translate(-111.884 -379.137)"/>
                    <path id="prefix__Path_3238" d="M141.086 396.4H122l.942-3.187h17.2z" class="prefix__cls-54" data-name="Path 3238" transform="translate(-112.216 -378.007)"/>
                    <path id="prefix__Path_3239" d="M147.506 409.75h-29.578l.266-.915h29.046z" class="prefix__cls-55" data-name="Path 3239" transform="translate(-113.388 -373.514)"/>
                </g>
            </g>
            <g id="prefix__Group_1925" data-name="Group 1925" transform="translate(299.097)">
                <g id="prefix__Group_1924" data-name="Group 1924">
                    <path id="prefix__Path_3240" d="M387.75 418.727h-36.68l.33-1.134 6.179-21 1.168-3.953.677-2.319 1.168-3.952 2.251-7.669a6.847 6.847 0 0 1 13.136 0l2.251 7.669 1.168 3.952.677 2.319 1.168 3.953 6.179 21z" class="prefix__cls-15" data-name="Path 3240" transform="translate(-345.441 -373.791)"/>
                    <path id="prefix__Path_3241" d="M393.218 411.532h-45.1a1.421 1.421 0 0 1-1.421-1.421 1.421 1.421 0 0 1 1.421-1.422h45.1a1.421 1.421 0 0 1 1.422 1.422 1.421 1.421 0 0 1-1.422 1.421z" class="prefix__cls-15" data-name="Path 3241" transform="translate(-346.698 -363.755)"/>
                    <path id="prefix__Path_3242" d="M377.531 387.514h-19.973l1.168-3.952h17.638z" class="prefix__cls-54" data-name="Path 3242" transform="translate(-343.575 -370.981)"/>
                    <path id="prefix__Path_3243" d="M379.788 392.385h-23.663l1.168-3.952h21.327z" class="prefix__cls-54" data-name="Path 3243" transform="translate(-343.987 -369.58)"/>
                    <path id="prefix__Path_3244" d="M387.75 408.944h-36.68l.33-1.134h36.02z" class="prefix__cls-55" data-name="Path 3244" transform="translate(-345.441 -364.008)"/>
                </g>
            </g>
        </g>
    </g>
</svg>
